<svg id="Layer_1" data-name="Layer 1" xmlns="http://www.w3.org/2000/svg" viewBox="0 0 377.98 546.902"><defs><style>.cls-1{fill:#d0cdd0;stroke:#58595b;stroke-miterlimit:10;stroke-width:0.5px;}.cls-2{fill:#a09ea1;}.cls-3{fill:#7a7985;}.cls-4{fill:#9d5552;}.cls-5{fill:#5f595e;}.cls-6{fill:#3b3944;}.cls-7{fill:#312e33;}</style></defs><title>woodpecker</title><path class="cls-1" d="M382.212,558.851c-1.106-.581-8.227-9.159-15.825-19.062l-13.815-18-4.212-13.894c-6.044-19.937-7.9-25.586-8.285-25.247-.188.164.113,4.245.669,9.069s.354,9.345-.449,10.048c-2.49,2.181-5.91-5.111-13.858-29.55-7.852-24.144-14.262-37.464-20.356-42.3-4.13-3.276-5.12-4.372-18.144-20.1-7.378-8.907-10.133-11.5-13.5-12.711l-4.23-1.52,3.012,5.219c4.177,7.238,1.738,8.683-6.347,3.761-9.132-5.559-10.184-7.016-17.087-23.654-3.379-8.144-6.547-14.937-7.041-15.1s-3.546,1.007-6.782,2.592c-13.474,6.6-24.5,6.721-38.812.436-9.523-4.182-24.86-15.706-51.1-38.394-8.321-7.194-19.164-15.718-24.1-18.94l-8.966-5.858-5.535,5.888c-4.6,4.892-6.221,5.923-9.589,6.1-5.169.265-6.688-3.191-2.884-6.559,6.236-5.522,4.4-6.252-18.486-7.341-28.506-1.357-28.893-4.335-1.6-12.322l12.042-3.524-1.757-4.512c-.966-2.482-1.328-5.323-.8-6.315,1.468-2.778-1.157-14.158-4.02-17.427-3.979-4.543-8.674-4.914-16.6-1.311-9.319,4.236-10.4,4.161-9.056-.635.855-3.055,2.723-5.214,8.07-9.328,6.414-4.935,7.413-5.28,12.788-4.412,12.045,1.945,11.7,1.518,29.131,35.53,1.8,3.5,4.4,5.074,19.9,11.978,9.806,4.37,18.1,7.711,18.422,7.426.775-.678-2.816-12.257-5.779-18.636a75.166,75.166,0,0,1-3.973-12.319,74.537,74.537,0,0,0-3.981-12.312,60.208,60.208,0,0,1-3.565-13.495c-.682-4.681-1.585-8.905-2.008-9.388-1.94-2.215-7.669-26.086-8.234-34.306-.346-5.037-1.4-13.617-2.345-19.067s-1.26-16.482-.7-24.517l1.01-14.608-5.447-6.959c-3-3.827-6.61-8.31-8.03-9.963a90.631,90.631,0,0,1-6.739-10.116c-3.633-6.218-4.859-7.462-9.751-9.892A59.521,59.521,0,0,1,72.095,95.16L66.318,89.8,54.072,91.35c-15.342,1.945-37.423,2.65-41,1.309-2.021-.758-2.657-1.717-2.517-3.792.167-2.459,1.173-3.311,8.784-7.432,4.727-2.56,14.157-7.045,20.955-9.967C56.089,64.682,63,58.876,69.131,47.244,75.367,35.413,80.277,30.2,91.237,23.759c18.732-11.005,42.7-14.087,59.967-7.711,8.709,3.216,20.351,11.873,27.685,20.585,4.877,5.794,10.027,14.215,7.69,12.575-.612-.43.115,1.3,1.616,3.851,4.727,8.026,13.806,26.269,15.565,31.276,1.94,5.523,5.5,8.714,18.739,16.8,18.637,11.377,25.244,17.4,45.032,41.027,24.521,29.284,36.576,48.276,41.553,65.467,4.337,14.985,14.763,42.552,17.772,46.993,2.009,2.965,4.229,6.8,11.789,20.394,9.392,16.884,21.375,60.494,24.741,90.04.614,5.388,3.741,17.263,6.949,26.388,11.5,32.7,19.043,58.561,17.484,59.927-1.207,1.057-2.089.4-4.4-3.284l-2.889-4.606-.316,7.414c-.174,4.078-1.213,8.2-2.31,9.159-2.644,2.315-7.619,1.624-11.9-1.654-1.91-1.462-3.506-1.988-3.547-1.167s5.457,17.028,12.219,36.017c13,36.5,13.483,40.209,4.426,33.761-2.276-1.62-4.436-2.686-4.8-2.368s1.712,6.895,4.611,14.615c5.743,15.294,6.775,21.426,3.3,19.6ZM248.594,303.505a7.59,7.59,0,0,0-2.957,2.655c-.436.864.537.374,2.164-1.086s1.983-2.166.793-1.569ZM217.64,279.068c-1.029-2.062-1.324-2.08-1.644-.1-.437,2.7.673,4.562,2.017,3.385.484-.424.316-1.9-.373-3.284Zm4.237-10.632a1.289,1.289,0,0,0-1.808-.172,2.841,2.841,0,0,0-.683,2.354c.14.843.953.921,1.808.172S222.356,268.983,221.878,268.437ZM244.611,218c-1.306-1.492-4.895-.71-5.017,1.094-.089,1.316,4.112,2.145,5.355,1.056.481-.421.329-1.388-.338-2.15Zm-4.738-11.814c-.993-.783-1.578-4.784-1.314-8.99a28.925,28.925,0,0,0-2.421-13.841c-3.087-6.673-4.423-7.787-6.822-5.686q-1.5,1.316-2.513-1c-.7-1.615-2.108-2.062-4.629-1.474-3.292.768-3.793,1.527-5.544,8.4l-1.925,7.561,5.6,4.678c3.082,2.573,6.166,4.849,6.852,5.059s1.6,2.247,2.03,4.527c.72,3.814,1.177,4.339,5.723,6.557,4.717,2.3,4.986,2.252,5.845-.986.5-1.867.1-4.028-.889-4.8Zm14.2-15.232c-1.743-2.637-1.775-2.624-1.581.644.242,4.071,1.281,5.562,2.473,3.548C255.456,194.319,255.055,192.433,254.076,190.952Zm-26.707,16.163c-.133-.8-2.063-1.636-4.289-1.85s-4.538-.95-5.138-1.636c-1.883-2.15-5.022,3.072-4.056,6.748,1.136,4.321,4.808,5.946,8.357,3.7,3.212-2.036,5.441-5.061,5.126-6.958ZM171.239,102.9c-1.949-1.737-4.515-3.311-5.7-3.5s-3.583-2.185-5.324-4.436c-2.319-3-3.552-3.754-4.615-2.824-.983.861-.073,3.68,2.831,8.764,4.143,7.253,4.4,7.483,7.878,7.144a31.033,31.033,0,0,0,8.156-1.833c.176-.086-1.275-1.578-3.224-3.314ZM154.356,60.532a32.441,32.441,0,0,1-4.592-4.038c-4.025-4.158-7.524-4.442-11.529-.934-3.852,3.373-3.412,4.6,1.672,4.679,1.962.029,4.167.737,4.9,1.573,1.723,1.967,9.547,2.727,10.472,1.017a1.842,1.842,0,0,0-.923-2.3Z" transform="translate(-10.291 -12.513)"/><path class="cls-2" d="M380.48,554.782c-.637-.195-6.931-7.827-13.985-16.961L353.67,521.215l-6.586-21.663c-10.08-33.161-10.38-33.669-8.279-14.037.756,7.062.914,13.242.353,13.734-1.625,1.423-3.917-4.058-11.817-28.269-8.588-26.318-13.7-36.289-23.283-45.436a95.427,95.427,0,0,1-11.733-14.135c-5.072-7.809-12.518-14.152-19.837-16.9-5.16-1.936-5.62,1.7-.9,7.094,3.784,4.321-.614,4.039-7.253-.464l-6.294-4.269-6.7-16.2c-3.683-8.907-7.345-16.394-8.138-16.636s-4.481,1.219-8.2,3.248c-12.745,6.958-27.124,6.329-42.368-1.851-7.2-3.866-25.164-17.925-39.874-31.213-10.914-9.859-27.675-22.813-34.621-26.757-4.749-2.7-4.946-2.667-9.908,1.5a59.047,59.047,0,0,1-8.288,5.908c-4.341,2.227-6.642-.544-3.075-3.7,4.18-3.7,4.524-6.258,1.019-7.573a15.281,15.281,0,0,0-5.891-.769c-1.638.178-10.959.012-20.713-.369-16.514-.645-17.469-.851-13.875-3a33.719,33.719,0,0,1,8.72-3.309,139.331,139.331,0,0,0,13.746-4.145c9.1-3.217,10.407-4.826,7.071-8.723-.636-.749-1.1-5.455-1.029-10.462.131-9.007.073-9.164-5.455-14.622-4.8-4.74-6.285-5.486-10.538-5.29a14.215,14.215,0,0,0-8.692,3.495c-2.057,1.8-4.133,2.82-4.611,2.274-1.569-1.791,5.662-6.834,9.838-6.86,4.731-.03,5.271-.373,5.494-3.5.134-1.875.314-1.945.9-.352.494,1.333,2.141,1.549,4.992.656,5.776-1.81,9.431.36,12.951,7.69,1.565,3.257,4.636,9.093,6.826,12.968s4.818,8.87,5.843,11.1c2.077,4.523,11.38,10.083,27.226,16.272,5.451,2.129,8.759,4.16,9.336,5.73,1.081,2.945,11.306,3.64,12.771.869.6-1.13,3.221-1.1,7.211.076l6.272,1.852.407-4.1c.338-3.408,1.011-4.329,3.969-5.432,2.1-.781,3.957-2.3,4.52-3.687,3.5-8.62,5.569-11.753,7.668-11.618,1.658.107,2.091-.408,1.818-2.164-.494-3.181-.739-3.318-5.173-2.909-3.766.347-3.872.457-2.808,2.9.608,1.4.463,3.1-.322,3.787-2.472,2.164-4.648-2.173-3.934-7.841a32.617,32.617,0,0,0-1.187-11.465c-1.03-3.31-1.672-6.669-1.427-7.463.585-1.895-3.266-6.25-5.233-5.918-2.85.48-6.517-5.38-6.612-10.566-.084-4.605-.864-6.013-7.581-13.683-4.411-5.037-7.9-8.191-8.483-7.677-1.484,1.3-5.359-3.688-4.626-5.955.348-1.077-.605-6.667-2.119-12.421-3.3-12.54-3.624-17.523-2.469-37.909.921-16.261,3.516-24.544,9.389-29.965,4.359-4.025,6.829-8.624,4.016-7.477-12.082,4.923-13.431,5.967-18.914,14.641a24.521,24.521,0,0,0-4.122,12.387c-.08,3.352-.773,6.671-1.54,7.375s-2.1,4.09-2.969,7.524c-1.207,4.786-1,6.918.888,9.133,2.566,3.011,2.108,5.367-1.286,6.621-1.687.623-2.241-.255-3.631-5.748-1.532-6.055-1.142-29.768.513-31.217,1.511-1.323-1.347-11.483-4.121-14.65a9.282,9.282,0,0,1-2.442-6.81c.452-3.833-4.571-10.917-6.527-9.2-.775.678-2.282-.755-4.843-4.605-3.082-4.633-4.5-5.775-8.29-6.667C82.493,100.9,74.651,96.3,70.645,91.727c-3.258-3.72-3.777-3.783-16.256-1.976-25.5,3.693-44.508,2.379-42.86-2.963C12,85.255,26.009,79.1,33.287,77.229,49.61,73.029,64.6,66.167,63.668,63.32c-.463-1.416,11.5-23.929,15.019-28.265,4.576-5.639,21.7-15.244,32.229-18.074,18.567-4.993,34.588-3.3,49.361,5.212,9.593,5.528,14.315,10.472,19.151,20.049a58.929,58.929,0,0,0,5.875,9.523c1.508,1.722,2.647,5.537,2.837,9.5.375,7.811,2.663,12.58,11.562,24.1,5.852,7.574,7.674,9.113,16.382,13.84,29.429,15.975,51.106,38.509,78.625,81.733,8.027,12.607,10.057,16.993,14.463,31.242,2.819,9.116,6.5,19.717,8.177,23.557a69.839,69.839,0,0,1,3.919,11.488c.477,2.478,3,7.484,5.6,11.123C342.491,280.16,357.9,327.2,362.341,366.6c.544,4.833,4.333,18.5,8.42,30.367,9.334,27.111,14.979,45.468,14.8,48.125-.214,3.158-3.406-1.1-8.85-11.791-4.658-9.153-18.348-31.126-21.967-35.258-1.015-1.159-2.223-1.778-2.683-1.374s4.664,9.542,11.386,20.308C376.77,438.314,379.05,443.4,378.7,451.012c-.435,9.432-7.94,11.561-14.469,4.1-5.258-6-3.267,2.518,8.324,35.641,6.767,19.338,11.8,35.605,11.179,36.149s-3.417-.593-6.218-2.526-5.262-2.965-5.47-2.293,2.039,7.823,4.991,15.89c5.195,14.193,5.882,17.548,3.441,16.8ZM310.2,374.976c-.428-2.79-5.738-8.587-6.919-7.552-.548.48-.066,1.936,1.072,3.235a6.878,6.878,0,0,1,1.675,4.794c-.319,1.972-1.145,2.155-4.365.966l-3.972-1.466,2.643,3.1c1.453,1.7,3.016,3.122,3.471,3.152,1.963.127,6.667-4.453,6.4-6.226Zm-9.975-38.854a4.63,4.63,0,0,0-2.992-2.265c-2.932-.19-4.066,3.924-1.8,6.515,1.722,1.966,2.526,2,4.1.174a4.163,4.163,0,0,0,.692-4.425Zm-17.28,1.657a9.563,9.563,0,0,1-6.977-3.554c-2.1-2.394-3.465-3.041-4.506-2.129a2.322,2.322,0,0,0,.178,3.219c.92,1.051,1.5,4.43,1.294,7.509-.424,6.257,1.038,9.24,2.8,5.708,2.264-4.546,3.493-5.672,7.084-6.486,5.038-1.143,5.127-4.119.128-4.266Zm19.369-37.427c-2.383-3.658-9.014-1.689-11.509,3.417-1.808,3.7-1.783,3.76,1.281,3.045,1.96-.457,3.407.04,3.882,1.334.619,1.686,1.414,1.386,4.35-1.642,2.881-2.971,3.276-4.19,2-6.155Zm-32.061-3.244c-5.589-5.526-6.442-5.706-10.447-2.2s-13.831,5.066-16.038,2.546c-2.011-2.3-3.415.047-2.12,3.539a6.887,6.887,0,0,1-1.19,6.4c-1.854,2.511-1.907,4.024-.243,6.922,1.722,3,2.851,3.659,5.9,3.447,3.678-.256,3.741-.363,2.619-4.453-1.408-5.134,2.824-9.9,6.706-7.559,1.669,1.008,3.248.667,5.326-1.153,1.9-1.667,3.723-2.169,5.119-1.411,2.774,1.505,5.276,1.213,6.854-.8.909-1.16.236-2.591-2.485-5.282Zm14.54-37.246c.185-5.075,2.135-7.615,4.112-5.357,2.231,2.548,3.067.231,2.214-6.134-.57-4.254-3.169-10.1-8.557-19.251-4.256-7.227-8.505-15.639-9.443-18.693-1.458-4.745-3.486-7.44-13.945-18.531-6.732-7.138-13.17-13.143-14.308-13.344-4.022-.71-17.435-12.132-22.367-19.048-4.078-5.718-5.057-6.542-6.39-5.375-2.021,1.77-5.45-2.012-4.115-4.539,1.411-2.67.143-3.619-6.392-4.786-5.9-1.054-9.146.111-7.031,2.526,1.757,2.007.775,5.908-1.719,6.829-2.515.929-5.175-1.6-4.964-4.725.222-3.282-4.745-3.586-7.575-.463-2.09,2.307-1.915,3.141,1.809,8.6,2.268,3.324,4.871,7.525,5.785,9.335,1.425,2.824,2.094,3.07,4.706,1.729,3.622-1.858,6.662.165,11.4,7.585,4.078,6.387,3.63,8.583-2.614,12.824l-4.825,3.277,3.585.805c7.9,1.775,9.894,3.107,9.667,6.457a9.188,9.188,0,0,1-2.386,5.213c-1.2,1.143-2.323,4.286-2.506,6.984-.292,4.309.025,4.979,2.6,5.5a9.551,9.551,0,0,1,4.421,2.233c.818.9,3.9,2,6.847,2.448,4.011.608,5.323,1.348,5.216,2.94-.08,1.177,2.513,5.161,5.806,8.922,6.232,7.116,9.714,15.965,7.747,19.687-2.128,4.027,0,7.137,7.409,10.851,4.717,2.363,7.3,4.365,7.628,5.9.769,3.648,6.747,3.268,12.946-.823,3.141-2.074,7.033-3.5,9.167-3.363,4.841.313,5.873-.744,6.073-6.219Zm-17.353-1.111c-6.106-2.61-7.684-5.926-4.253-8.931,2.154-1.887,2.666-1.788,3.7.711a28.334,28.334,0,0,0,4,6.155c3.635,4.224,2.793,4.73-3.442,2.065Zm-10.427-29.1c-2.467.777-5.05.767-5.74-.021s-3-.941-5.138-.339c-4.1,1.154-8.748-1.547-8.518-4.944.091-1.345,2.314-1.912,7.233-1.843a56.878,56.878,0,0,0,11.617-1.021c3.3-.819,4.942-.465,6.1,1.32,1.948,2.994.322,5-5.556,6.848Zm-36.649,49.545c.122-2.393.892-4.938,1.711-5.656a12.439,12.439,0,0,0,2.5-4.916c.932-3.33,1.244-3.557,3.989-2.913,6.17,1.447,11.567-4.206,6.777-7.1-5.679-3.43-17.227,3.168-17.961,10.263-.22,2.123-.94,4.334-1.6,4.912-1.964,1.72-5.964,11.038-5.141,11.977a10.929,10.929,0,0,0,3.347,1.838c3.293,1.235,6.073-2.429,6.378-8.406Zm-17.051-64.705c-1.244-.842-2.657-1.184-3.141-.76-1.03.9.873,3.383,2.684,3.5,2.447.159,2.68-1.237.457-2.741ZM190.973,108.5a39.166,39.166,0,0,0-5.168-2.829c-3.345-1.635-5.93-4.068-8.946-8.417-3.382-4.878-4.8-6.1-7-6.04-4.778.134-10.765-10.035-7.56-12.842.755-.661,1.662-4.493,2.015-8.514.64-7.283.617-7.339-5.752-14.251-6.129-6.651-6.626-6.923-11.981-6.553-4.358.3-5.9-.227-7.013-2.4-1.079-2.11-3.462-3.07-9.785-3.939-4.6-.632-9.68-1.744-11.3-2.471-1.8-.811-6.309-.21-11.671,1.558-5.885,1.94-10.786,2.506-15.022,1.734-3.458-.63-8.037-.437-10.175.428-4.922,1.993-3.748,3.658,1.356,1.923,4.111-1.4,5.013-.591,10.8,9.653,2.663,4.71,3.14,5.016,6.948,4.447a46.025,46.025,0,0,1,16.224,1.478c3.19,1.049,2.368,3.843-2.392,8.129-3.078,2.771-4.223,4.815-4.128,7.369.127,3.416-.01,3.555-4.059,4.128a15.869,15.869,0,0,1-7.689-1.077c-4.789-2.285-4.674-2.3-5.158.69-.41,2.535,1.539,4.694,8.1,8.971,2.891,1.886,15.652-1.713,20.2-5.7,2.17-1.9,4.614-3.251,5.431-3a3.958,3.958,0,0,0,3.176-1.015c3.606-3.134,15.46,3.888,13.982,8.283-.368,1.094.038,4.766.9,8.159,1.78,6.985.81,9.929-3.5,10.636a7.083,7.083,0,0,0-4.367,2.787c-1.108,1.828-.857,2.5,1.225,3.284a16.047,16.047,0,0,1,5.152,3.875c2.952,3.371,7.289,3.746,12.381,1.071,3.875-2.036,18.2-5.647,27.777-7.005,5.862-.831,7.859-1.559,6.99-2.551Zm-22.3,184.292c-2.833-.183-4.949-4.677-4.511-9.58.413-4.621.72-5.1,2.62-4.1,1.323.7,2.465,3.459,2.962,7.169.865,6.453.835,6.637-1.071,6.513ZM148.021,297.7c-2.319-1.209-4.054-6.68-2.539-8.007,1.438-1.259,4.072,2.311,4.374,5.927.24,2.872.065,3.07-1.835,2.08Zm-9.459-21.87c-2.039-2.328-3.864-10.045-2.631-11.125.546-.478,1.743,1.407,2.687,4.23,2.084,6.233,2.059,9.31-.056,6.9ZM122.7,205.1c-1.152-1.677-1.67-3.765-1.152-4.64.664-1.121,1.561-.691,3.037,1.458,1.152,1.677,1.67,3.765,1.152,4.64-.664,1.121-1.561.691-3.037-1.458Z" transform="translate(-10.291 -12.513)"/><path class="cls-3" d="M377.388,550.462c-.811-.979-6.38-8.148-12.377-15.93l-10.9-14.149-7.293-24.331c-10.657-35.551-12.125-37.76-9.215-13.868,1.617,13.282,1.1,17.741-1.408,12.2-.7-1.555-4.543-12.876-8.53-25.158-7.877-24.264-15.041-38.022-24.587-47.212a88.784,88.784,0,0,1-10.145-12.471c-4.165-6.311-6.04-8.1-12.587-12.007-8.874-5.3-13.171-6.578-13.921-4.147-.291.942.6,3,1.979,4.575,3.8,4.34,2.193,6.038-2.69,2.84-6.5-4.254-7.371-5.616-14.254-22.161-4.5-10.818-6.965-15.365-8.454-15.6-1.156-.184-5.849,1.615-10.428,4-9.614,5-18.809,5.751-29.016,2.366-11.827-3.921-22.731-11.741-51.661-37.05q-20.722-18.128-32.673-25.185c-6.484-3.831-11.5-2.888-16.162,3.04-1.793,2.279-3.553,3.527-4.545,3.224-.948-.29-.848-1.171.242-2.125a10.211,10.211,0,0,0,2.536-4.762c.64-2.97-.433-3.207-20.819-4.588-20.444-1.385-25.386-3.354-12.471-4.969,3.215-.4,6.108-.961,6.428-1.241s3.69-.467,7.488-.413c7.292.1,10.08-.932,6.951-2.577-1.284-.675-1.248-1.54.114-2.733,2.011-1.761,1.652-4.545-.983-7.621-1.438-1.677-.117-14.235,1.66-15.792,1.364-1.194-.782-4.925-3.7-6.439-3.363-1.743-7.619-6.465-6.617-7.342a9.466,9.466,0,0,1,3.839-.977c2.8-.251,3.359.293,7.332,7.184,2.364,4.1,5.107,9.117,6.1,11.147s2.9,5.492,4.246,7.692c3.748,6.124,3.72,8.04-.132,8.938-3.922.915-6.819,5.1-3.126,4.514a10.876,10.876,0,0,0,4.46-2.245c2.5-2.154,10.1-1.181,12.537,1.6.9,1.029,5.326,3.96,9.833,6.512s10.933,6.586,14.282,8.964c3.528,2.505,7.418,4.183,9.252,3.989,2.622-.277,3.714.5,6.364,4.521,2.469,3.748,3.519,4.574,4.6,3.626.772-.676,3.264-.883,5.538-.461s5.079-.059,6.233-1.07c1.667-1.46,2.635-1.226,4.709,1.142,1.672,1.909,3.117,2.536,4.022,1.744a2.917,2.917,0,0,1,2.994-.428c1.008.515,1.518-1.2,1.4-4.741-.216-6.754.9-7.86,7.923-7.864,6.542,0,7.509.886,6.962,6.4-.416,4.2-.427,4.209-3.948,3.8-3.373-.388-3.592-.219-4.913,3.776-1.643,4.969-1.375,5.417,3.28,5.486,2.5.037,4.672,1.315,7.275,4.287,2.039,2.329,4.363,3.958,5.165,3.62s3.311.493,5.577,1.845c2.886,1.722,4.891,1.954,6.695.775,1.721-1.125,2.978-1.029,3.788.29.667,1.085,3.005,2.469,5.2,3.076,3.333.923,4.331.586,6.107-2.06,3.068-4.572.737-7.841-3.158-4.43-2.823,2.472-3.248,2.392-7.009-1.322-3.285-3.244-4.442-3.668-6.443-2.362a8.091,8.091,0,0,1-4.829,1.213c-1.909-.3-2.255-1.572-1.718-6.307.553-4.875.207-6.068-1.946-6.715-3.261-.98-7.383-7.177-6.873-10.333a5.163,5.163,0,0,0-.795-3.7c-1.759-2.009,5.583-5.952,9.72-5.22,3.286.582,3.354.527,2.776-2.218-.444-2.107.535-3.815,3.9-6.8,3.518-3.118,4.594-5.109,4.956-9.168.255-2.851,1.2-5.827,2.094-6.612a3.839,3.839,0,0,0,1.376-2.961c-.4-2.4,3.465-5.091,4.919-3.43.812.928,2.388.64,4.174-.762l4.844-3.8c2.81-2.206,13.3,4.2,18.323,11.19l3.827,5.325,5.759-5.357c4.887-4.546,6.8-5.5,12.61-6.3,5.569-.767,7-1.449,7.672-3.647,1.233-4.063,2.625-4.714,4.813-2.25,3.751,4.226,6.2,3.708,3.565-.754-2.675-4.531-1.825-6.419,2.46-5.466,2.206.491,2.816.122,3.143-1.9.288-1.783-2.01-5.586-7.951-13.157a86.914,86.914,0,0,1-13.41-22.7c-5.05-12.042-5.064-12.061-18.9-26.458-8.412-8.756-15.014-14.759-16.829-15.3-4.568-1.37-18.47-14.172-21.984-20.243-4.153-7.177-3.976-7.044-6.52-4.875-2.026,1.726-2.177,1.662-1.412-.606a5.02,5.02,0,0,0-.8-4.437c-1.791-2.045-15.854-3.653-17.713-2.026-.62.543-3.051,1.092-5.4,1.22-9.618.522-12.793,9.181-5.982,16.316a83.14,83.14,0,0,1,8.085,10.8c3.82,6.094,4.731,6.9,8.78,7.791,6.219,1.365,6.82,4,1.9,8.312-4.707,4.122-4.09,5.395,3.336,6.889,2.938.591,5.747,1.536,6.24,2.1,1.329,1.517-.832,6.321-3.244,7.212-1.279.472-2.082,2.375-2.061,4.883l.034,4.11-3.546-.844c-1.951-.464-4.164-.3-4.92.359-2.5,2.189,1.669,4.782,8.2,5.1,3.541.174,7.05,1.008,7.8,1.854a17.46,17.46,0,0,0,5.389,3.1c3.514,1.362,4.025,1.926,3.986,4.409-.04,2.466.371,2.94,3.062,3.534,7.2,1.591,14.669,15.779,12.267,23.317-.936,2.937-1.483,3.207-5.323,2.633-9.419-1.409-15.51,2.9-19.518,13.816a100.3,100.3,0,0,1-4.735,10.988c-1.129,2.028-2.56,4.691-3.18,5.919-.976,1.933-1.662,1.62-5.135-2.345-4.078-4.657-5.486-4.9-5.75-1-.112,1.66-.63,1.924-2.176,1.112-2.6-1.37-3.1-4.3-.865-5.127.951-.351,1.241-1.619.644-2.816-1.893-3.8-10.9-11.513-13.358-11.444-3.246.091-7.466-5.04-6.461-7.856.6-1.688-1.091-4.988-6.338-12.354-3.938-5.528-7.425-11.2-7.749-12.606s-4.308-6.717-8.852-11.8c-7.419-8.3-8.6-10.285-11.591-19.427-1.83-5.6-3.3-11.788-3.26-13.751a32.516,32.516,0,0,0-.766-6.955c-.568-2.308-.09-3.758,1.5-4.556,1.9-.953,1.879-1.487-.134-2.879s-2.2-4.81-1.06-18.076c1.557-18.064,2.047-19.035,15.863-31.494,6.133-5.531,8.066-6.512,17.672-8.972a172.943,172.943,0,0,1,17.447-3.56c5.929-.71,9.41-1.96,8.464-3.04a53.541,53.541,0,0,0-5.334-2.789c-3.23-1.558-8.013-5.693-13.486-11.662-8.409-9.169-8.478-9.3-8.082-15.043a90.441,90.441,0,0,0-.176-12.022c-.54-5.831-1.047-6.709-7.972-13.811-5.853-6-8.009-7.512-10.335-7.238-5.7.67-7.316.375-9.1-1.658-.989-1.129-3.916-2.435-6.5-2.9s-7.713-1.766-11.388-2.885c-5.485-1.67-7.869-1.533-13.313.765a33.908,33.908,0,0,1-15.522,2.223c-4.89-.317-10.969.306-13.508,1.383-12.552,5.327-2.073-9.018,12.626-17.283C116.59,12.57,139.807,11.5,158.433,22.949c9.119,5.605,13.642,10.308,22.225,23.11,5.3,7.9,6.147,10.1,6.346,16.455.418,13.34,11.295,27.849,27.758,37.026,21.788,12.145,29.6,18.642,48.093,39.979,13.426,15.493,19.32,23.318,28.911,38.377,11.021,17.3,12.42,20.192,16.424,33.889,2.407,8.235,5.881,18.79,7.719,23.455a108,108,0,0,1,4.276,12.931c.513,2.447,3.232,7.579,6.043,11.4,6.931,9.434,10.478,16.469,16.567,32.865,8.669,23.345,16.655,55.258,18.314,73.181.43,4.648,4.063,18.006,8.075,29.684,8.726,25.4,14.925,46.07,13.8,46-.45-.029-2.666-3.535-4.925-7.791a373.186,373.186,0,0,0-20.019-32.859c-4.078-5.843-4.98-6.609-6.357-5.4-1.889,1.654-1.951,1.531,12.622,24.931,12.372,19.866,14.5,25.095,12.918,31.728-1.9,7.956-4.963,8.434-13.009,2.03-2.354-1.874-4.345-2.608-4.83-1.782-.454.773,4.777,17.373,11.623,36.89s12.015,35.846,11.488,36.288-3.016-.737-5.528-2.619-5.145-2.918-5.85-2.3,0,4.543,1.563,8.724,4.013,10.725,5.441,14.544c2.55,6.817,2.177,10.291-.727,6.78ZM331.581,374.05c-.557-.957-2.687-1.027-4.985-.164-4.536,1.7-4.376,2.5.755,3.749,3.789.924,5.841-.816,4.23-3.585Zm-19.228,4.731c1.58-1.384-1.653-7.586-6.026-11.56-3.727-3.388-6.607-1.078-3.773,3.026,2.249,3.257,1.3,5.3-1.724,3.7-3.929-2.066-4.731,1.357-1.249,5.333,3.991,4.557,12.619,6.638,11.82,2.851a3.842,3.842,0,0,1,.951-3.355Zm13.73-29.5c-.535-2.323-1.235-2.725-3.727-2.144-3.975.927-3.945,1.961.116,4.112,3.94,2.088,4.479,1.794,3.612-1.968Zm-23.628-10.869c.75-3.739.54-4.132-2.895-5.42-3.31-1.242-4.045-.969-6.932,2.567-2.585,3.166-3.5,3.649-4.577,2.417-.741-.846-2.908-1.585-4.816-1.642s-4.984-1.534-6.836-3.283c-4.256-4.018-8.028-2.414-6.162,2.621.7,1.875.7,3.914,0,4.53-1.559,1.385.2,7.819,3.023,11.042,1.644,1.878,2.34,1.916,3.236.177a42.083,42.083,0,0,1,3.91-5.6c2.511-3.069,3.128-3.181,6.621-1.2,2.933,1.661,4.167,1.663,5.17.007.877-1.446,2.28-1.813,4.192-1.1,3.548,1.331,5.021.088,6.064-5.118ZM304.4,302.86c.194-1.161-.921-3.564-2.477-5.341-2.46-2.809-3.3-2.962-6.409-1.17a22.8,22.8,0,0,0-6.437,6.723c-2.755,4.494-2.721,4.817.946,9l3.8,4.343,5.11-5.725c2.811-3.149,5.269-6.674,5.464-7.835Zm-29.421-1.977c.2-2.941-.337-4-2.426-4.781a13.056,13.056,0,0,1-4.43-3c-2.072-2.366-8.137-2.01-9.494.557-1.413,2.675-10.854,4.5-14.212,2.745-3.715-1.94-6.44,1.235-4.118,4.8,1.5,2.3,1.252,2.876-2.12,4.872-3.295,1.95-3.633,2.646-2.451,5.05,3.221,6.556,6.75,9.148,11.756,8.636l4.876-.5-1.624-4.862c-1.965-5.883.775-9.226,5.506-6.719,2.161,1.145,3.876.994,5.571-.49,1.546-1.354,3.295-1.633,4.745-.757,2,1.2,4.019.864,7.318-1.234.466-.3.963-2.238,1.1-4.314Zm25.181-27.493c-1.537-1.755-1.915-1.684-2.255.418-.413,2.554,1.438,4.023,3.164,2.511.516-.452.107-1.77-.909-2.93Zm-8.728-.919c-.14-.843-.468-1.345-.73-1.116a13.015,13.015,0,0,1-2.58,1.194c-1.381.51-1.623,1.326-.706,2.374,1.535,1.753,4.421-.009,4.016-2.451Zm-66.047,40.182c-.507-.579-1.128-.383-1.38.435a2.749,2.749,0,0,0-.075,1.925c.211.241.832.045,1.38-.435A1.367,1.367,0,0,0,225.386,312.654Zm-37.237,17.793c-.718-.82-1.753-1.1-2.3-.618s-.409,1.543.309,2.363,1.753,1.1,2.3.618S188.867,331.267,188.149,330.447Zm25.075-27.271c-.575-.037-.649,1-.165,2.31.7,1.889.914,1.9,1.045.068.091-1.27-.3-2.34-.88-2.377Zm-33.668,23.491a2.831,2.831,0,0,0-2.353-.676c-.844.142-.924.955-.178,1.807s1.8,1.156,2.353.676A1.289,1.289,0,0,0,179.556,326.666ZM172,305.973c-.718-.82-.857-1.883-.309-2.363s1.584-.2,2.3.618.857,1.883.309,2.363S172.716,306.793,172,305.973ZM254.16,226.89c-4.047.354-7.915,1.079-8.595,1.61-1.649,1.289-6.251-1.581-6.1-3.8.075-1.1,2.63-1.472,6.843-.989,3.7.424,8.425.252,10.5-.382,3.683-1.124,5.836-.344,5.081,1.84-.205.595-3.685,1.371-7.732,1.726ZM114.549,166.231c-.771-3.346.48-21.891,1.54-22.819.447-.391.232-3.761-.476-7.489s-.95-8.572-.536-10.764c1.344-7.121-.292-10.779-7.184-16.06-3.375-2.587-6.822-4.415-7.659-4.062s-2.668-.667-4.068-2.266c-1.632-1.863-4.565-3.083-8.17-3.4-5.106-.447-10.389-3.463-18.674-10.662-1.264-1.1-7.385-1.029-16.529.186C35.41,91.206,16.528,91.41,13.44,89.32c-3.546-2.4.474-4.778,14.788-8.748a184.91,184.91,0,0,0,17.9-5.791c6.585-2.9,9.329-3.032,9.393-.459.034,1.355,1.055,1.825,3.2,1.474,3.834-.628,4.254-2.4.7-2.961-2.161-.343-2.279-.678-.715-2.038a16.506,16.506,0,0,1,5.7-2.564c3.464-.846,3.859-1.32,4.1-4.92a11.885,11.885,0,0,1,2.816-6.55,68.338,68.338,0,0,0,4.988-5.808,6.685,6.685,0,0,1,6.519-3.111c4.983.161,5.941,1.177,7.02,7.444a11.776,11.776,0,0,1-1.7,8.609c-1.985,2.9-2.093,4.36-.5,6.684a8.923,8.923,0,0,1,.99,6.741c-1.892,6.759-.652,8.551,8.9,12.871,9.527,4.308,12.2,4.07,21.155-1.892,4.156-2.765,5.263-2.961,6.52-1.157,2.818,4.046,8.294,5.891,10.847,3.656,1.9-1.665,1.913-2.6.06-4.713-2.284-2.608-2.268-2.637,1.4-2.583l3.709.055-.607,3.487c-.334,1.918-.092,4.095.536,4.837s1.26,3.223,1.4,5.513c.207,3.332-.208,4.133-2.079,4.015-3.309-.209-4.956,1.606-6.2,6.836-.988,4.141-.7,4.886,3.262,8.322,2.391,2.076,4.156,4.391,3.923,5.146s-2.55,2.513-5.148,3.908c-5.151,2.764-12.215,13.1-14.307,20.938-6.315,23.648-6.465,24.044-7.473,19.67ZM81.91,72.525c-.047-1.861-.793-2.741-3.044-3.585-5.09-1.909-5.545,4.042-.512,6.689,2.3,1.209,3.634.042,3.555-3.1Z" transform="translate(-10.291 -12.513)"/><path class="cls-4" d="M374.188,544.785c-2.322-2.714-7.781-9.716-12.131-15.561-7.727-10.382-8.088-11.232-15.659-36.868-10.178-34.461-12.693-37.661-9.617-12.232,1.479,12.223,1.19,16.642-.771,11.789-.5-1.248-4.131-12.093-8.059-24.1-4.465-13.649-8.993-24.815-12.081-29.793-2.717-4.379-6.314-10.28-8-13.113-1.766-2.978-4.077-5.535-5.476-6.06-3.63-1.362-8.475-7.439-10.31-12.932-1.944-5.82-4.21-8.669-6.222-7.822-.809.34-4.748-1.213-8.753-3.452-8.036-4.493-11.941-3.472-10.328,2.7.946,3.621.124,3.678-4.617.321-2.175-1.54-5.041-6.884-9.726-18.132-3.654-8.772-7.468-16.383-8.476-16.913-1.7-.892-9.445,1.9-17.419,6.272-3.988,2.188-17.934,2.091-23.7-.164-8.4-3.286-17.728-9.492-30.781-20.467-7.38-6.206-19.627-16.51-27.216-22.9s-17.563-14.031-22.166-16.984c-7.1-4.558-9.136-5.225-13.441-4.408-2.789.529-5.534.433-6.1-.213s-10.072-1.828-21.124-2.624-19.7-1.792-19.225-2.211,6.185-1.119,12.681-1.556a92.015,92.015,0,0,0,22.67-4.722c10.48-3.792,10.987-3.818,14.508-.752A80.045,80.045,0,0,0,132.05,304.4a45.822,45.822,0,0,1,9.3,5.432c2.023,1.671,4.74,3.008,6.036,2.971,3.025-.085,8.607,6.263,9.087,10.334.457,3.864,5.389,11.908,6.634,10.818.5-.437.429-2.746-.156-5.129-1.139-4.637.023-7.01,2.21-4.513a3.358,3.358,0,0,1,.283,3.507c-.811,1.535-.6,1.911.91,1.656,1.548-.261,2.188.434,3.049,3.312,1.367,4.572,4.142,7.825,5.592,6.556.673-.589,1.695.188,2.616,1.99,2,3.906,4.166,3.386,4.244-1.018.082-4.582.725-5.018,5.469-3.7,3.747,1.037,3.952,1.29,3.965,4.865.016,4.383,3.4,7.829,8.758,8.923l3.735.762,1.546-5.891,1.547-5.891,3.689,5.6c3.011,4.575,4.078,5.46,5.808,4.821a3.7,3.7,0,0,1,3.736,1.063,5.073,5.073,0,0,0,4.54,1.164c1.608-.375,2.64-1.007,2.292-1.4s.766-.412,2.474-.034c3.055.676,3.12.611,3.973-4.007,1.309-7.082,4.845-15.146,6.987-15.938,3.128-1.155-.982-4.528-5.711-4.686-2.6-.087-4.679.666-5.349,1.933-.7,1.316-1.538,1.572-2.3.7-2-2.28-2.091-8.4-.155-10.1,3.465-3.035,2.247-6.264-3.964-10.513-4.928-3.371-5.828-4.5-7.028-8.777-.9-3.2-.713-5.156.526-5.613,1.9-.7,6.906-11.459,6.53-14.04-.11-.754.743-3.723,1.895-6.6,2.073-5.17,2.118-5.21,4.3-3.736,2.151,1.456,4.976.041,9.726-4.872,1.681-1.739,2.983-1.429,8.032,1.908a44.33,44.33,0,0,1,9.769,9.2c4.478,6.246,6.719,6.762,8.857,2.039,2.023-4.467,8.125-8,15.391-8.908,3.181-.4,6.571-1.413,7.533-2.255,4.393-3.847,9.734.056,8.095,5.915-1.212,4.331.316,6.9,3.422,5.754,3.453-1.275,4.021-2.281,2.36-4.177a9.959,9.959,0,0,1-1.8-5.007,12.062,12.062,0,0,0-2.535-5.911c-2.908-3.4-2.185-6.062,1.428-5.259,2.542.565,2.74.249,2.521-4.024-.2-3.865-1.376-5.936-7.068-12.436-5.442-6.214-7.816-10.239-11.683-19.812-4.816-11.921-4.969-12.142-19.894-28.664-12.259-13.571-15.751-16.844-18.88-17.7-3.087-.841-6.578-4.064-17.837-16.468l-14-15.423-7.07-.5c-7.577-.533-20.067,1.511-22.558,3.693-4.982,4.363-4.663,13.775.586,17.329,1.355.917,5.068,5.658,8.251,10.534,4.381,6.711,6.469,9.071,8.587,9.708,3.979,1.2,4.041,1.557.762,4.428-1.612,1.412-2.82,3.236-2.684,4.054.233,1.4,4.831,3.494,10.888,4.95,2.133.513,2.675,1.148,2.551,2.988-.127,1.872-.826,2.447-3.515,2.887-2.016.33-3.143,1.06-2.821,1.827a19.54,19.54,0,0,1,.8,4.33c.255,2.941.117,3.027-3.753,2.365-2.6-.444-4.405.046-5.115,1.389-1.844,3.49,2.269,6.4,8.97,6.35,6.522-.051,6.2-.276,14.944,10.459a8.808,8.808,0,0,0,5.063,2.726c6.606.76,14.943,15.507,11.746,20.778-.834,1.376-2.867,2.262-5.185,2.261-10.458-.005-15.608,4.15-19.98,16.119-1.815,4.968-4.378,9.978-5.7,11.132-2.086,1.827-3.029,1.575-7.3-1.949-7.954-6.57-30.532-33.155-36.121-42.531a152.916,152.916,0,0,0-12.919-17.65c-5.8-6.725-8.067-10.287-8.966-14.09a57.01,57.01,0,0,0-2.663-8.327c-.8-1.781-1.754-6.623-2.115-10.762-.5-5.785-.042-7.987,2-9.522,2.384-1.794,2.336-2.3-.472-4.938-2.739-2.578-3.02-4.512-2.273-15.664.469-7,1.114-13.948,1.434-15.447s4.591-6.964,9.492-12.146l8.91-9.421,10.368-2.951c5.7-1.623,10.535-3.1,10.74-3.277a78.7,78.7,0,0,1,8.714-1.487c7.206-1,12.741-3.264,11.488-4.694a36.041,36.041,0,0,0-5.653-2.169c-4.228-1.388-6.941-3.551-13.743-10.957-7.692-8.375-8.417-9.556-7.849-12.776.8-4.525-1.4-19.225-3.763-25.157-1.531-3.845-2.2-4.522-4.285-4.34-1.359.118-3.7-1.188-5.2-2.9-2.539-2.9-4.513-3.4-12.308-3.14a6.607,6.607,0,0,1-4.543-2.027,9.342,9.342,0,0,0-5.257-2.485A51.333,51.333,0,0,1,124.649,38.8c-6.364-2.692-7.74-2.695-15.34-.034A37.055,37.055,0,0,1,93.57,40.9a36.284,36.284,0,0,0-12.8,1.037c-6.818,2.3-6.41-.581,1.007-7.115,11.551-10.177,28.84-17.3,44.875-18.5,20.539-1.529,43.65,9.568,49.26,23.65a41.766,41.766,0,0,0,6.115,10.058c3.213,3.669,3.9,5.776,4.071,12.452.256,10.137,2.378,14.52,12.341,25.492,5.964,6.568,9.541,9.506,14.1,11.581,3.36,1.53,11.646,6.517,18.413,11.083,11.772,7.944,13.107,9.227,30.935,29.725,15.536,17.863,20.56,24.481,30.237,39.829,10.13,16.068,12.036,19.972,15.009,30.74,1.873,6.784,5.2,17.008,7.4,22.72s3.964,11.9,3.931,13.745c-.036,2,1.523,5.326,3.843,8.207a94.11,94.11,0,0,1,7.478,11.371c1.967,3.588,4.618,8.374,5.893,10.638,5.183,9.205,18.131,49.547,20.083,62.574.67,4.47,1.559,8.515,1.975,8.991s1.37,6.189,2.119,12.7c1.328,11.539,7.158,33.061,11.7,43.182,2.775,6.188,8.89,28.584,7.784,28.512-.441-.029-2.165-3.028-3.832-6.666a53.851,53.851,0,0,0-5.643-9.712c-2.249-2.668-6.223-10.27-11.689-22.358-.782-1.729-1.492-2.5-1.578-1.717s-1.346,1.159-2.79.841c-5.124-1.139-4.8,2.825.968,12.029,13.539,21.586,20.784,34.464,21.476,38.175.819,4.389-2.461,13.5-4.785,13.289-.8-.072-3.613-1.8-6.244-3.842-3.077-2.388-5.3-3.254-6.245-2.43-.982.86,2.579,12.866,10.834,36.519,6.763,19.381,12.259,35.794,12.214,36.473s-2.439-.39-5.318-2.377c-8.036-5.547-8.783-2.43-3.012,12.567,2.7,7.007,4.862,13.328,4.814,14.046s-1.988-.914-4.31-3.627Zm-35.44-134.847c-2.12-2.421-4.149-.04-2.451,2.877a1.651,1.651,0,0,0,2.7.565C339.917,412.571,339.817,411.158,338.748,409.938Zm.475-17.551c-1.133-1.293-7.258-1.088-7.348.246-.125,1.848,5,3.3,6.624,1.872.8-.7,1.129-1.656.724-2.118Zm-5.966-16.463c.169-2.494-2.26-5.816-4.009-5.482a29.869,29.869,0,0,0-4.976,2.36c-3.37,1.878-3.621,2.4-2.036,4.209,1.763,2.014,8.478,3.248,10.072,1.851a5.275,5.275,0,0,0,.949-2.937Zm-20.082,7.406a3.494,3.494,0,0,1,.534-3.979c1.413-1.237.878-2.73-2.753-7.683-2.478-3.381-5.6-6.572-6.935-7.092-3.556-1.384-5.723,1.183-3.318,3.93,2.745,3.134,2.424,4.872-.768,4.163a3.318,3.318,0,0,0-3.723,1.477c-1.654,3.13,5.365,10.637,9.891,10.58,1.915-.024,4.074.631,4.8,1.456,1.931,2.205,3.694-.006,2.274-2.852ZM332.149,346.3c.144-.987-8.642-1.109-11.224-.156a3.389,3.389,0,0,1-3.473-.731,2.011,2.011,0,0,0-2.827-.213c-2.033,1.78,1.636,5.747,7.016,7.585,3.816,1.3,4.647,1.06,7.354-2.158a23.767,23.767,0,0,0,3.154-4.329Zm-51.822,39.945c-.62-.04-.342.753.619,1.762,1.061,1.116,1.5,1.144,1.128.073-.34-.969-1.126-1.8-1.746-1.836Zm22.741-46.7c1.7-5.4,1.542-5.768-3.556-8.081-3.253-1.476-3.99-1.254-6.753,2.03-2.7,3.2-3.532,3.493-6.394,2.205-1.811-.815-3.751-1.081-4.311-.591s-2.022-.256-3.25-1.658c-4.963-5.668-11.046-5.044-10.068,1.033.272,1.692-.063,3.566-.746,4.164-1.674,1.466,1.349,10.131,4.984,14.281,2.96,3.38,4.42,3.443,4.667.2.074-.966,1.8-3.469,3.845-5.561,3.443-3.53,3.906-3.628,6.418-1.349,2.083,1.889,3.239,1.991,5.011.439a6.9,6.9,0,0,1,4.848-1.613c3.247.515,3.485.268,5.3-5.5Zm.405-32.694c3.318-4.158,2.711-7.521-2.1-11.625-2.938-2.507-8.974.16-11.436,5.053a11.049,11.049,0,0,1-4.358,4.573c-2.456,1.076-2.3,1.542,2.233,6.719,4.253,4.857,5.25,5.421,7.853,4.444a7.341,7.341,0,0,0,3.824-3.173,35.119,35.119,0,0,1,3.983-5.99Zm-27.462-4.29c.978-3.964-.305-5.813-6.4-9.217-6.161-3.441-7.8-3.705-10.152-1.641-3.535,3.1-12.262,5.168-15.544,3.691-4.075-1.834-6.45.4-5.127,4.827.9,3,.524,3.827-2.442,5.462-4.4,2.427-4.154,4.627,1.232,10.818,3.1,3.558,5.04,4.722,8.038,4.809,5.886.172,7.779-2.3,5.95-7.775-1.913-5.726-.832-7.019,4.1-4.907,2.136.915,4.793.873,6.28-.1,1.418-.926,3.427-1.237,4.465-.691,1.584.833,6.008.076,8.158-1.395a11.742,11.742,0,0,0,1.441-3.883Zm16.553-28.627c1.535-2.9-.746-4.73-3.938-3.153-2.606,1.288-3.512,5.54-1.637,7.681.828.945,4.077-1.694,5.575-4.527ZM213.77,320.635c-2.388-1.256-3.867-7.074-1.883-7.408,2.219-.374,4.672,3.056,4.213,5.893-.33,2.039-.779,2.331-2.33,1.515Zm30.6-93.712c-1.729.155-3.1-.367-3.046-1.16s1.5-1.35,3.208-1.24c4.034.261,3.914,2.034-.163,2.4ZM91.629,288.591a5.318,5.318,0,0,1,.81-3.342c.481-.421,1.462-.1,2.179.724.75.857.406,2.278-.81,3.342-1.767,1.547-2.126,1.428-2.179-.724ZM88.4,280.885a2.076,2.076,0,0,1,.312-2.906c1.324-1.16,1.628-.95,1.681,1.161a6.994,6.994,0,0,1-.312,2.906C89.876,282.227,89.12,281.7,88.4,280.885Zm3-8.7c-1.251.2-2.237-.21-2.19-.906.116-1.708,3.967-3.037,5.089-1.757,1.1,1.262.095,2.19-2.9,2.663Zm23.739-113.87a40.514,40.514,0,0,1,1.1-10.845,37.987,37.987,0,0,0,.467-12.608c-.568-3.663-.4-8.053.369-9.756,2.327-5.139-.615-11.547-7.895-17.194-3.406-2.642-7.417-4.978-8.915-5.191a10.131,10.131,0,0,1-5.1-3.1c-1.536-1.754-4.3-2.747-7.843-2.816-4.474-.087-6.646-1.118-11.925-5.662-7.1-6.115-7.029-6.1-22.183-3.237a162.179,162.179,0,0,1-23.117,2c-13.6.146-19.53-1.535-16.078-4.558,1-.875,2.265-1.381,2.812-1.124,1.3.612,23.7-5.6,29.958-8.316,2.95-1.278,5.113-1.461,5.479-.464a3.73,3.73,0,0,0,2.147,2.087c2.522.719,10.964-1.824,11.467-3.453.749-2.427,5.276-1.869,7.763.956a16.435,16.435,0,0,0,6.85,3.853,10.9,10.9,0,0,1,7.067,5.249c1.911,3.047,4.61,4.9,11.321,7.775,9.28,3.976,13.863,3.52,20.172-2,2.536-2.221,2.9-2.132,4.7,1.148,1.54,2.8,2.294,3.258,3.559,2.15a3.432,3.432,0,0,1,3.58-.367c1.086.571,3.435.494,5.219-.172,4.679-1.745,5.135,1.23,1.049,6.835-5.644,7.743-6.082,11.98-1.749,16.928l3.679,4.2-5.334,4.967c-6.038,5.623-12.676,17.068-13.865,23.906-.928,5.339-2.988,12.5-3.8,13.21-.31.271-.742-1.71-.961-4.4Zm-34.325-90.5c-4.49-.291-6.971-13.789-3.15-17.135,2.56-2.242,8.618-1.258,10.061,1.634,2.557,5.126-2.2,15.807-6.911,15.5Z" transform="translate(-10.291 -12.513)"/><path class="cls-5" d="M374.188,544.785c-2.322-2.714-7.781-9.716-12.131-15.561-7.727-10.382-8.088-11.232-15.659-36.868-10.178-34.461-12.693-37.661-9.617-12.232,2.5,20.659.666,18.016-9.2-13.255-3.036-9.623-6.543-19.585-7.794-22.137-2.637-5.379-11.722-19.654-16.211-25.474-2.283-2.959-2.936-5.5-2.5-9.745.322-3.158-.128-6.555-1-7.549-2.191-2.5-8.508-17.3-8.579-20.1-.037-1.487-2.027-4.043-5.663-7.277-3.083-2.742-11.488-11.778-18.678-20.08-20.791-24.009-33.781-33.237-37.7-26.779-.822,1.356-1.744,1.662-2.479.822-1.968-2.247-2.041-8.376-.121-10.058,3.465-3.035,2.247-6.264-3.964-10.513-4.928-3.371-5.828-4.5-7.028-8.777-.9-3.2-.713-5.156.526-5.613,1.9-.7,6.906-11.459,6.53-14.04-.11-.754.743-3.723,1.895-6.6,2.073-5.17,2.118-5.21,4.3-3.736,2.151,1.456,4.976.041,9.726-4.872,1.681-1.739,2.983-1.429,8.032,1.908a44.33,44.33,0,0,1,9.769,9.2c4.478,6.246,6.719,6.762,8.857,2.039,2.023-4.467,8.125-8,15.391-8.908,3.181-.4,6.571-1.413,7.533-2.255,4.393-3.847,9.734.056,8.095,5.915-1.212,4.331.316,6.9,3.422,5.754,3.453-1.275,4.021-2.281,2.36-4.177a9.959,9.959,0,0,1-1.8-5.007,12.062,12.062,0,0,0-2.535-5.911c-2.908-3.4-2.185-6.062,1.428-5.259,2.542.565,2.74.249,2.521-4.024-.2-3.865-1.376-5.936-7.068-12.436-5.442-6.214-7.816-10.239-11.683-19.812-4.816-11.921-4.969-12.142-19.894-28.664-12.259-13.571-15.751-16.844-18.88-17.7-3.087-.841-6.578-4.064-17.837-16.468l-14-15.423-7.07-.5c-7.577-.533-20.067,1.511-22.558,3.693-4.982,4.363-4.663,13.775.586,17.329,1.355.917,5.068,5.658,8.251,10.534,4.381,6.711,6.469,9.071,8.587,9.708,3.979,1.2,4.041,1.557.762,4.428-1.612,1.412-2.82,3.236-2.684,4.054.233,1.4,4.831,3.494,10.888,4.95,2.133.513,2.675,1.148,2.551,2.988-.127,1.872-.826,2.447-3.515,2.887-2.016.33-3.143,1.06-2.821,1.827a19.54,19.54,0,0,1,.8,4.33c.255,2.941.117,3.027-3.753,2.365-2.6-.444-4.405.046-5.115,1.389-1.844,3.49,2.269,6.4,8.97,6.35,6.522-.051,6.2-.276,14.944,10.459a8.808,8.808,0,0,0,5.063,2.726c6.606.76,14.943,15.507,11.746,20.778-.834,1.376-2.867,2.262-5.185,2.261-10.458-.005-15.608,4.15-19.98,16.119-1.815,4.968-4.378,9.978-5.7,11.132-2.086,1.827-3.029,1.575-7.3-1.949-7.954-6.57-30.532-33.155-36.121-42.531a152.916,152.916,0,0,0-12.919-17.65c-5.8-6.725-8.067-10.287-8.966-14.09a57.01,57.01,0,0,0-2.663-8.327c-.8-1.781-1.754-6.623-2.115-10.762-.5-5.785-.042-7.987,2-9.522,2.384-1.794,2.336-2.3-.472-4.938-2.739-2.578-3.02-4.512-2.273-15.664.469-7,1.114-13.948,1.434-15.447s4.591-6.964,9.492-12.146l8.91-9.421,10.368-2.951c5.7-1.623,10.535-3.1,10.74-3.277a78.7,78.7,0,0,1,8.714-1.487c7.206-1,12.741-3.264,11.488-4.694a36.04,36.04,0,0,0-5.653-2.169c-4.228-1.388-6.941-3.551-13.743-10.957-7.692-8.375-8.417-9.556-7.849-12.776.8-4.525-1.4-19.225-3.763-25.157-1.554-3.9-2.189-4.522-4.429-4.327a4.358,4.358,0,0,1-3.841-1.9c-1.127-1.959-.916-2.088,2.619-1.6,2.576.355,4.393-.261,5.506-1.866,1.248-1.8,3.078-2.11,7.365-1.248,8.488,1.707,11.983,6.395,12.236,16.41.256,10.137,2.378,14.52,12.341,25.492,5.964,6.568,9.541,9.506,14.1,11.581,3.36,1.53,11.646,6.517,18.413,11.083,11.772,7.944,13.107,9.227,30.935,29.725,15.536,17.863,20.56,24.481,30.237,39.829,10.13,16.068,12.036,19.972,15.009,30.74,1.873,6.784,5.2,17.008,7.4,22.72s3.964,11.9,3.931,13.745c-.036,2,1.523,5.326,3.843,8.207a94.11,94.11,0,0,1,7.478,11.371c1.967,3.588,4.618,8.374,5.893,10.638,5.183,9.205,18.131,49.547,20.083,62.574.67,4.47,1.559,8.515,1.975,8.991s1.37,6.189,2.119,12.7c1.328,11.539,7.158,33.061,11.7,43.182,2.775,6.188,8.89,28.584,7.784,28.512-.441-.029-2.165-3.028-3.832-6.666a53.851,53.851,0,0,0-5.643-9.712c-2.249-2.668-6.223-10.27-11.689-22.358-.782-1.729-1.492-2.5-1.578-1.717s-1.346,1.159-2.79.841c-5.124-1.139-4.8,2.825.968,12.029,13.539,21.586,20.784,34.464,21.476,38.175.819,4.389-2.461,13.5-4.785,13.289-.8-.072-3.613-1.8-6.244-3.842-3.077-2.388-5.3-3.254-6.245-2.43-.982.86,2.579,12.866,10.834,36.519,6.763,19.381,12.259,35.794,12.214,36.474s-2.439-.39-5.318-2.377c-8.036-5.547-8.783-2.43-3.012,12.567,2.7,7.007,4.862,13.328,4.814,14.046s-1.988-.914-4.31-3.627Zm-35.44-134.847c-2.12-2.421-4.149-.04-2.451,2.877a1.651,1.651,0,0,0,2.7.565C339.917,412.571,339.817,411.158,338.748,409.938Zm.475-17.551c-1.133-1.293-7.258-1.088-7.348.246-.125,1.848,5,3.3,6.624,1.872.8-.7,1.129-1.656.724-2.118Zm-5.966-16.463c.169-2.494-2.26-5.816-4.009-5.482a29.869,29.869,0,0,0-4.976,2.36c-3.37,1.878-3.621,2.4-2.036,4.209,1.763,2.014,8.478,3.248,10.072,1.851a5.275,5.275,0,0,0,.949-2.937Zm-20.082,7.406a3.494,3.494,0,0,1,.534-3.979c1.413-1.237.878-2.73-2.753-7.683-2.478-3.381-5.6-6.572-6.935-7.092-3.556-1.384-5.723,1.183-3.318,3.93,2.745,3.134,2.424,4.872-.768,4.163a3.318,3.318,0,0,0-3.723,1.477c-1.654,3.13,5.365,10.637,9.891,10.58,1.915-.024,4.074.631,4.8,1.456,1.931,2.205,3.694-.006,2.274-2.852ZM332.149,346.3c.144-.987-8.642-1.109-11.224-.156a3.389,3.389,0,0,1-3.473-.731,2.011,2.011,0,0,0-2.827-.213c-2.033,1.78,1.636,5.747,7.016,7.585,3.816,1.3,4.647,1.06,7.354-2.158a23.767,23.767,0,0,0,3.154-4.329Zm-29.081-6.756c1.7-5.4,1.542-5.768-3.556-8.081-3.253-1.476-3.99-1.254-6.753,2.03-2.7,3.2-3.532,3.493-6.394,2.205-1.811-.815-3.751-1.081-4.311-.591s-2.022-.256-3.25-1.658c-4.963-5.668-11.046-5.044-10.068,1.033.272,1.692-.063,3.566-.746,4.164-1.674,1.466,1.349,10.131,4.984,14.281,2.96,3.38,4.42,3.443,4.667.2.074-.966,1.8-3.469,3.845-5.561,3.443-3.53,3.906-3.628,6.418-1.349,2.083,1.889,3.239,1.991,5.011.439a6.9,6.9,0,0,1,4.848-1.613c3.247.515,3.485.268,5.3-5.5Zm.405-32.694c3.318-4.158,2.711-7.521-2.1-11.625-2.938-2.507-8.974.16-11.436,5.053a11.049,11.049,0,0,1-4.358,4.573c-2.456,1.076-2.3,1.542,2.233,6.719,4.253,4.857,5.25,5.421,7.853,4.444a7.341,7.341,0,0,0,3.824-3.173,35.119,35.119,0,0,1,3.983-5.99Zm-27.462-4.29c.978-3.964-.305-5.813-6.4-9.217-6.161-3.441-7.8-3.705-10.152-1.641-3.535,3.1-12.262,5.168-15.544,3.691-4.075-1.834-6.45.4-5.127,4.827.9,3,.524,3.827-2.442,5.462-4.4,2.427-4.154,4.627,1.232,10.818,3.1,3.558,5.04,4.722,8.038,4.809,5.886.172,7.779-2.3,5.95-7.775-1.913-5.726-.832-7.019,4.1-4.907,2.136.915,4.793.873,6.28-.1,1.418-.926,3.427-1.237,4.465-.691,1.584.833,6.008.076,8.158-1.395a11.742,11.742,0,0,0,1.441-3.883Zm16.553-28.627c1.535-2.9-.746-4.73-3.938-3.153-2.606,1.288-3.512,5.54-1.637,7.681.828.945,4.077-1.694,5.575-4.527ZM266.492,400.34c-2.531-.164-6.736-6.126-10.447-14.812-2.026-4.743-3.317-8.944-2.869-9.336s2.516,1.229,4.595,3.6c2.631,3,4.828,4.332,7.228,4.368,4.555.068,5.524,3.169,1.964,6.286-2.349,2.057-2.522,3.162-.978,6.24,1.032,2.057,1.26,3.7.507,3.652ZM235.049,364.9c-2.839,1.181-6.665,2.973-8.5,3.981-3.986,2.189-17.932,2.093-23.7-.163-8.4-3.286-17.728-9.492-30.781-20.467-7.38-6.206-19.627-16.51-27.216-22.9s-17.563-14.031-22.166-16.984c-7.1-4.558-9.136-5.225-13.441-4.408-2.789.529-5.534.433-6.1-.213s-10.072-1.828-21.124-2.624-19.7-1.792-19.225-2.211,6.185-1.119,12.681-1.556a92.015,92.015,0,0,0,22.67-4.722c10.48-3.792,10.987-3.818,14.508-.752a80.045,80.045,0,0,0,19.39,12.506,45.822,45.822,0,0,1,9.3,5.432c2.023,1.671,4.74,3.008,6.036,2.971,3.025-.085,8.607,6.263,9.087,10.334.457,3.864,5.389,11.908,6.634,10.818.5-.437.429-2.746-.156-5.129-1.139-4.637.023-7.01,2.21-4.513a3.358,3.358,0,0,1,.283,3.507c-.811,1.535-.6,1.911.91,1.656,1.548-.261,2.188.434,3.049,3.312,1.367,4.572,4.142,7.825,5.592,6.556.673-.589,1.695.188,2.616,1.99,2,3.906,4.166,3.386,4.244-1.018.082-4.582.725-5.018,5.469-3.7,3.747,1.037,3.952,1.29,3.965,4.865.016,4.383,3.4,7.829,8.758,8.923l3.735.762,1.472-5.608,1.472-5.608,6.808,8.347,6.808,8.347,8.912.553c4.9.3,9.654-.1,10.561-.891,2.381-2.085,4.453,2.166,2.212,4.539a26.048,26.048,0,0,1-6.98,4.072Zm-21.278-44.271c-2.388-1.256-3.867-7.074-1.883-7.408,2.219-.374,4.672,3.056,4.213,5.893-.33,2.039-.779,2.331-2.33,1.515Zm30.6-93.712c-1.729.155-3.1-.367-3.046-1.16s1.5-1.35,3.208-1.24c4.034.261,3.914,2.034-.163,2.4ZM91.63,288.59a5.318,5.318,0,0,1,.81-3.342c.481-.421,1.462-.1,2.179.724.75.857.406,2.278-.81,3.342-1.767,1.547-2.126,1.428-2.179-.724ZM88.4,280.884a2.076,2.076,0,0,1,.312-2.906c1.324-1.16,1.628-.95,1.681,1.161a6.994,6.994,0,0,1-.312,2.906C89.877,282.226,89.121,281.7,88.4,280.884Zm3-8.7c-1.251.2-2.237-.21-2.19-.906.116-1.708,3.967-3.037,5.089-1.757,1.1,1.262.095,2.19-2.9,2.663Zm23.739-113.87a40.514,40.514,0,0,1,1.1-10.845,37.987,37.987,0,0,0,.467-12.608c-.568-3.663-.4-8.053.369-9.756,2.327-5.139-.615-11.547-7.895-17.194-3.406-2.642-7.417-4.978-8.915-5.191a10.131,10.131,0,0,1-5.1-3.1c-1.536-1.754-4.3-2.747-7.843-2.816-4.474-.087-6.646-1.118-11.925-5.662-7.1-6.115-7.029-6.1-22.183-3.237a162.179,162.179,0,0,1-23.117,2c-13.6.146-19.53-1.535-16.078-4.558,1-.875,2.265-1.381,2.812-1.124,1.3.612,23.7-5.6,29.958-8.316,2.95-1.278,5.113-1.461,5.479-.464a3.73,3.73,0,0,0,2.147,2.087c2.522.719,10.964-1.824,11.467-3.453.749-2.427,5.276-1.869,7.763.956a16.435,16.435,0,0,0,6.85,3.853,10.9,10.9,0,0,1,7.067,5.249c1.911,3.047,4.61,4.9,11.321,7.775,9.28,3.976,13.863,3.52,20.172-2,2.536-2.221,2.9-2.132,4.7,1.148,1.54,2.8,2.294,3.258,3.559,2.15a3.432,3.432,0,0,1,3.58-.367c1.086.571,3.435.494,5.219-.172,4.679-1.745,5.135,1.23,1.049,6.835-5.644,7.743-6.082,11.98-1.749,16.928l3.679,4.2-5.334,4.967c-6.038,5.623-12.676,17.068-13.865,23.906-.928,5.339-2.988,12.5-3.8,13.21-.31.271-.742-1.71-.961-4.4Zm20.8-129.742c-5,2.035-10.272,4.721-11.724,5.968a7.616,7.616,0,0,1-5.164,1.867c-1.388-.22-6.023.959-10.3,2.621-5.5,2.138-9.591,2.691-13.985,1.89a33.4,33.4,0,0,0-12.781.766q-11.843,3.418-.209-6.859c11.755-10.356,28.982-17.369,45.442-18.5C135,15.791,148.3,17.838,148.1,19.538c-.351,2.873-4.378,5.864-12.158,9.034ZM80.813,67.822c-4.49-.291-6.971-13.789-3.15-17.135,2.56-2.242,8.618-1.258,10.061,1.634,2.557,5.126-2.2,15.807-6.911,15.5Z" transform="translate(-10.291 -12.513)"/><path class="cls-6" d="M371.576,539.756C357.02,522.623,354.665,518,346.686,490.9c-8.717-29.61-9.608-31.967-11.449-30.327-.712.643-.617,7.28.221,14.759s1.173,13.576.745,13.548-4.041-10.11-8.027-22.4c-4.97-15.326-9.092-25.431-13.112-32.14-8.378-13.986-12.3-22.646-12.184-26.935.054-2.052-1.6-6.719-3.685-10.372-2.712-4.761-3.5-7.661-2.775-10.242.748-2.672.29-4.231-1.775-6.045-16.359-14.376-24.056-22.31-48.445-49.936-15.532-17.594-28.383-32.847-28.556-33.895a2.389,2.389,0,0,1,1.42-2.548c.955-.353,1.763-2.192,1.8-4.087s.63-3.944,1.325-4.553,1.652-3.224,2.127-5.812a62.013,62.013,0,0,1,1.98-7.828c.967-2.7,1.431-2.933,3.456-1.71,1.49.9,3.356.617,5.141-.781l4.834-3.794c2.623-2.066,6.031.2,14.568,9.7,3.735,4.154,7.485,7.437,8.333,7.293s2.6-2.162,3.882-4.485c2.584-4.668,9.124-8.453,15.281-8.843,3.069-.195,3.266-.013,2.768,2.563a11.612,11.612,0,0,0,1.224,6.215l1.76,3.443,3.57-4.3c3.446-4.146,3.589-4.185,4.113-1.127.465,2.713,1,3.13,3.729,2.9,4.273-.354,6.073-2.133,4.853-4.8a46.012,46.012,0,0,1-2.024-6.269,18.58,18.58,0,0,0-2.875-6.259c-1.724-2.029-1.655-2.142.991-1.6,3.849.783,3.959.564,3.1-6.23-.64-5.085-1.738-7.079-7.717-14-4.184-4.845-7.862-10.4-9.2-13.886-6.33-16.527-6.781-17.246-21.692-34.51-12.647-14.644-15.3-17.208-18.767-18.169-3.265-.9-6.772-4.055-18.247-16.389-12.506-13.443-14.59-15.257-17.42-15.16a20.008,20.008,0,0,1-6.433-1.1,13.573,13.573,0,0,0-7.637.279,19,19,0,0,1-7.062,1.067c-5.782-.917-12.407,9.261-10.4,15.977.6,2.006,2.971,5.794,5.268,8.418s6.883,8.445,10.189,12.936c5.186,7.043,5.754,8.391,4.134,9.81-3.666,3.21.091,6.467,10.276,8.909,3.686.884,3.2,3.363-.8,4.016-2.844.466-3.247.931-3.025,3.49a9.07,9.07,0,0,0,.986,3.786c.4.458-1.34,1.008-3.869,1.221-5.807.489-7.705,3.658-4.431,7.4,1.668,1.905,4.789,2.911,10.1,3.255,6.138.4,7.935,1.072,8.934,3.354,3.142,7.177,4.876,9.007,8.774,9.259,5.143.333,11,6.911,12.158,13.663.935,5.432-.495,7.614-4.565,6.968-6.522-1.035-17.239,5.249-19.272,11.3-3.531,10.509-5.636,15.144-7.13,15.7-.935.345-3.915-1.247-6.623-3.538-7.489-6.336-25.136-27.072-30.669-36.036a213.064,213.064,0,0,0-14.809-19.7C145.9,212.631,144,209.682,143.207,205.43a37.789,37.789,0,0,0-2.485-8.156c-2.006-3.96-2.269-15.875-.367-16.62,3.376-1.324,3.421-5.421.1-9.211-3.009-3.436-3.182-5.05-1.889-17.593l1.424-13.809,6.74-5.9c3.864-3.384,6.619-6.628,6.457-7.6-.344-2.074,6.524-6.6,10.171-6.7,1.417-.04,5.416-1.212,8.887-2.6a75.772,75.772,0,0,1,14.843-3.688c7.586-1.028,14.849-4.585,13.2-6.466-.333-.38-3.229-1.345-6.436-2.144-5.046-1.257-6.92-2.621-13.933-10.138l-8.1-8.686.6-7.245c.332-3.985-.034-9.179-.812-11.542-.918-2.788-.724-4.808.553-5.751,1.553-1.146,1.386-1.992-.789-4-3.329-3.074-5.756-10.184-4-11.722,2.075-1.817,10.623,1.608,14.208,5.694,2.49,2.843,3.406,5.595,3.608,10.883.424,11.078,1.447,13.511,10.047,23.881,6.9,8.325,9.146,10.259,15.7,13.543,8.435,4.225,29.842,18.709,29.745,20.127-.033.493-.987.409-2.118-.187-2.631-1.384-4.265-.011-2.451,2.06a3.3,3.3,0,0,0,3.747.4c3.213-1.608,8.466,2.811,22.147,18.634,11.881,13.74,12.985,15.257,29.761,40.872,10.2,15.579,11.248,17.778,15.317,32.225,2.4,8.528,5.659,18.528,7.24,22.222s2.431,7.885,1.891,9.313a8.39,8.39,0,0,0,.263,5.451c1.459,3.346.837,7.479-1.436,9.549a3.557,3.557,0,0,0-.838,3.566c1.173,3.2,1.475,3.228,2.59.279.735-1.943,1.521-2.573,2.744-2.2,1.189.363,1.653-.446,1.515-2.638-.179-2.833.314-2.432,4.73,3.844,2.712,3.853,5.193,8.145,5.514,9.537a12.2,12.2,0,0,0,2.274,4.462,6.346,6.346,0,0,1,1.263,4.574c-.617,3.818,2.15,11.256,4.875,13.1a5.687,5.687,0,0,1,2.439,3.679c.055,1.153,1.455,5.255,3.11,9.116,5.315,12.4,11.962,40.36,14.287,60.1.708,6.009,1.723,11.44,2.255,12.068s1.339,4.162,1.792,7.854,2.883,10.647,5.4,15.457,5.029,10.719,5.582,13.132l1.005,4.386L371.6,416.9a23.415,23.415,0,0,1-5.3-8.52c-3.845-13.365-10.319-23.912-13.153-21.43a3.039,3.039,0,0,0-.694,3.1c.412,1.123-.287,2.38-1.724,3.1-3.219,1.612-2.369,4.474,4.626,15.56,19.7,31.218,21.047,34.072,18.805,39.756-2.408,6.109-4.141,6.887-8.213,3.691-4.175-3.278-7.447-3.626-8.293-.883-.505,1.637,14.891,48.5,20.984,63.868,2.755,6.95,2.246,8.774-1.649,5.906-5.291-3.9-5.938-4.087-7.934-2.34-1.925,1.686-.8,5.925,5.377,20.306,1.13,2.631,1.866,4.949,1.634,5.152s-2.249-1.783-4.483-4.412ZM339.324,409.584c-2.721-3.107-6.488-1.249-4.892,2.413,1.437,3.3,3.9,4.08,5.67,1.806.837-1.074.533-2.722-.778-4.219Zm2.133-16.262c.24-3.539-1.391-4.459-6.269-3.536-7.01,1.327-6.922,5.371.155,7.1C339.234,397.83,341.23,396.668,341.457,393.322Zm-18.473-10.241-2.178-3.8,5.364,1.007c2.95.554,5.935.507,6.632-.1,2.111-1.849,1.54-7.82-.953-9.96-1.967-1.688-3.368-1.405-8.723,1.761-6.309,3.73-6.42,3.733-10.009.261A14.162,14.162,0,0,1,308.971,365c-.583-4.2-3.538-8.238-5.056-6.909a1.382,1.382,0,0,0-.057,1.945c.6.68-.394,1.807-2.705,3.081-3.055,1.683-3.439,2.42-2.374,4.555,1.007,2.017.641,2.87-1.758,4.1-3.84,1.97-3.5,4.529,1.324,10.083,2.63,3.025,4.692,4.233,7.173,4.2,1.915-.024,4.179.751,5.029,1.722,2.076,2.371,4.506.017,4.08-3.952-.449-4.185,1.339-3.933,5.457.769,4.069,4.646,5.89,3.695,2.9-1.516Zm9.53-38.192a2.98,2.98,0,0,0-3.61-1.133c-1.331.5-5.6.591-9.478.209s-7.282.033-7.556.922c-.831,2.692,5.256,8.468,10.01,9.5,3.969.86,4.85.509,8.137-3.247,2.565-2.932,3.324-4.831,2.5-6.248Zm-2.705-6.988c-1.779-.115-2.339,3.086-.632,3.607,1.015.31,1.557-.2,1.648-1.535.074-1.1-.383-2.031-1.016-2.072Zm-25.6,2.347c2.434-6.075,1.879-7.282-4.552-9.908-3.963-1.618-4.715-1.452-7.089,1.566-2.255,2.866-3.356,3.224-7.295,2.37a28.477,28.477,0,0,1-8.349-3.529c-5.333-3.627-8.168-2.791-10.757,3.172-1.545,3.559-1.587,5.867-.151,8.367,1.09,1.9,1.8,4.035,1.583,4.747s1.731,3.727,4.334,6.7c4.861,5.55,7.131,5.79,7.495.793.136-1.877.675-2.167,2.707-1.456,2.951,1.033,3.9-.913,2.42-4.969-1.113-3.053-.8-3,5.284.818.8.5,2.539-.029,3.859-1.186a7.087,7.087,0,0,1,4.946-1.7c3.179.5,2.95.743,5.566-5.787Zm2.533-36.593c1.016-1.425-4.671-11.134-6.926-11.823-2.32-.709-9.182,4.29-11.289,8.224-3.01,5.622-6.636,5.268-10.681-1.042-1.819-2.838-4.022-5.038-5.241-5.234a13.146,13.146,0,0,1-5.034-3c-2.275-2.069-3.777-2.281-6.705-.945-2.076.947-4.986,2.148-6.466,2.669s-3.886,1.522-5.345,2.224a5.44,5.44,0,0,1-4.871-.224c-3.739-2.531-6.911-.319-6.688,4.663.138,3.093-.455,4.55-1.955,4.8-2.386.4-4.416,3.373-4.1,6.008.111.939,2.372,4.2,5.026,7.247,4.178,4.8,5.521,5.57,10.025,5.765,4.354.188,5.473-.287,6.876-2.923a6.608,6.608,0,0,0-.389-6.743c-2.367-4.123-1.338-5.914,2.071-3.606,1.279.866,4.122.9,6.317.075s4.91-.878,6.033-.118c2,1.352,4.709-.026,9.124-4.635,1.718-1.794,2.5-1.752,3.954.214,1,1.348,4.284,5.171,7.3,8.5,5.3,5.838,5.594,5.975,8.506,3.961,1.659-1.147,4.481-4.484,6.271-7.415s3.675-5.918,4.188-6.637ZM325.03,274.88c.05-2.787-.512-3.592-3.422-4.9-4.267-1.921-5.827-.879-3.211,2.145a28.588,28.588,0,0,1,3.3,5.009c1.65,3.358,3.252,2.275,3.333-2.252Zm-14.814-23.733c-1.572-1.18-1.744-.882-1.127,1.956.4,1.842,1.468,3.575,2.373,3.852,2.215.677,1.221-3.957-1.246-5.808ZM190.642,262.293c-1.461-.095-1.952.335-1.753,1.535.428,2.58,3.476,3.1,3.644.625C192.632,262.992,192.1,262.387,190.642,262.293ZM155.35,207.779c-1.875-4.08-10.955-14.542-11.852-13.657-1.128,1.114,1.809,6.435,6.986,12.653,3.936,4.728,6.855,5.33,4.867,1Zm59.24-101.463c-.637-.727-3.326-.857-5.976-.29q-8.356,1.79,1.087,3.534c4.5.835,7-.83,4.889-3.245Zm-48.281,18.56a14.125,14.125,0,0,0-5.279,1.2c-2.274,1.039-2.487,1.683-1.088,3.281,1.245,1.421,2.609,1.4,4.787-.062,4.021-2.706,4.594-4.308,1.58-4.421ZM261.2,392.811c-6.952-12.382-8.645-18.971-3.309-12.877a11.36,11.36,0,0,0,7.561,4.262l4.18.4-2.835,2.483a10.836,10.836,0,0,0-3.234,5.856c-.384,3.256-.466,3.252-2.362-.126Zm-22.627-31.92c-.817-.25-.563-1.263.566-2.251s2.443-1.35,2.922-.8.224,1.559-.566,2.251A3.508,3.508,0,0,1,238.577,360.891Zm-14.528,7.377c-5.907,2.706-18.676,1.247-27.263-3.115-8.088-4.108-23.8-16.17-23.66-18.169.141-2.084,3.3-1.773,5.312.522,1.078,1.232,4.431,2.346,7.451,2.477s6.177,1.022,7.016,1.98a4.032,4.032,0,0,0,3.06,1.484c.844-.142,2.686,1.056,4.093,2.663,1.713,1.956,3.061,2.482,4.078,1.591,1.858-1.627,7.711,1.274,9.127,4.525.754,1.73,1.922,2.041,4.312,1.15a10.152,10.152,0,0,1,4.741-.775c.8.246,3.06-.433,5.012-1.508,4.55-2.507,7.076,0,3.206,3.181a35.723,35.723,0,0,1-6.485,4Zm67.978-100.344c-3.093-.989-3.09-1.028.06-.892,1.814.078,3.27.544,3.237,1.035s-1.517.427-3.3-.142ZM166.945,343.183c-1.554-.884-2.791-2.1-2.75-2.712.131-1.934,2.187-1.052,3.909,1.678l1.666,2.641-2.825-1.608Zm-11.4-11.022c-.714-.218-6.1-4.42-11.966-9.338s-14.114-11.255-18.326-14.084-7.278-5.475-6.813-5.882c2.115-1.852,21.174,6.339,25.05,10.766.747.853,3.243,2.168,5.547,2.923,4.05,1.327,4.25,1.617,6,8.692.995,4.025,1.224,7.14.51,6.922ZM95.15,301.292c-15.248-1.621-17.5-2.381-9.584-3.233a28.5,28.5,0,0,0,7.4-1.911,75.2,75.2,0,0,1,9.169-3.1c4.982-1.36,6.469-1.158,8.495,1.156,1.644,1.878,1.942,3.254.9,4.165-.854.748-.885,1.565-.068,1.815s.9.965.175,1.589-8.142.408-16.491-.479Zm22.693-157.176c.517-6.32.514-11.978-.008-12.574s.038-3.334,1.243-6.086c1.841-4.2,1.742-5.732-.618-9.567-3.063-4.976-15.181-14.814-18.513-15.03a7.465,7.465,0,0,1-4.1-2.467c-2.607-2.977-9.3-5.619-11.842-4.678-1.671.617-2.192-.122-3.536-5.015-.867-3.157-1.228-6.044-.8-6.417,1.837-1.608,5.184-.17,7.012,3.013,1.31,2.281,4.232,4.442,8.807,6.513,11.793,5.339,14.615,5.623,20.2,2.038,4.488-2.882,5.3-2.953,7.372-.651,1.639,1.818,3.79,2.352,7.241,1.8,6.25-1,7.312.2,4.327,4.9-1.312,2.065-2.828,7.12-3.368,11.232-.773,5.88-.513,7.415,1.218,7.184a2.929,2.929,0,0,1,3,1.9c.621,1.691-.089,2.718-3.112,4.507-4.289,2.538-12.711,17.853-14.51,26.385-.523,2.482-.528-.659-.011-6.98Zm15.045-114a92.037,92.037,0,0,1-11.164,4.341,138.168,138.168,0,0,0-16.637,4.634c-4.168,1.416-7.532,1.619-9.506.573-1.9-1.009-5.716-.849-10.114.424-3.882,1.123-7.4,1.686-7.823,1.251s2.418-3.264,6.307-6.286c16.87-13.11,40.81-20,55.515-15.972,8.652,2.368,7.15,4.887-6.579,11.036ZM72.246,83.51a1.325,1.325,0,1,1,1.866.121A1.326,1.326,0,0,1,72.246,83.51Zm-7.431-2.358a9.474,9.474,0,0,0-3.976,1.843c-6.289,5.41-36.26,8.1-35.989,3.233.1-1.86,1.9-2.764,9.034-4.542,4.9-1.221,9.462-2.707,10.142-3.3s3.642-.6,6.582-.008a30.14,30.14,0,0,0,10.645-.146c2.915-.672,5.579-.9,5.92-.512,1.137,1.3-.083,3.076-2.357,3.435Zm15.8-15.342c-2.262-.691-2.852-4.1-1.3-7.518.807-1.782,1.067-3.7.578-4.255s-.161-1.652.728-2.431c1.391-1.218,1.628-1.019,1.7,1.434.062,2.221.434,2.7,1.691,2.177C86.438,54.2,88.148,56.94,86.99,60c-1.268,3.355-4.568,6.359-6.378,5.806ZM16.668,88.4a1.367,1.367,0,0,1,.075-1.925c.548-.48,1.169-.675,1.38-.435a2.749,2.749,0,0,1-.075,1.925c-.252.818-.873,1.013-1.38.435Z" transform="translate(-10.291 -12.513)"/><path class="cls-7" d="M365.143,530.033c-8.388-9.158-9.745-12.225-18.428-41.637-4.116-13.943-8.239-26.828-9.162-28.632-3.187-6.234-4.674-1.047-3.263,11.385.754,6.642,1.016,12.053.582,12.025s-3.613-9.34-7.066-20.692c-4.56-14.992-7.467-22.242-10.621-26.492-5.019-6.763-12.1-22.877-12.753-29a24.254,24.254,0,0,0-3.022-8.4,20.272,20.272,0,0,1-2.724-8.139l-.146-3.939,5.016.517c2.759.284,5.6,1.178,6.3,1.987,1.783,2.036,5.463.419,6.45-2.835.729-2.4,1.21-2.324,4.358.719,4.457,4.307,8.172,2.854,5.594-2.188-1.5-2.941-1.406-3.264.751-2.5,5.909,2.09,10.838-8.575,5.9-12.768-2.529-2.148-4.17-1.92-11.9,1.649-4.193,1.936-5.739,1.991-7.257.257a6.688,6.688,0,0,1-1.518-4.749c.573-3.545-6.544-11.57-9.345-10.536a3.655,3.655,0,0,0-2.228,2.884c-.206,3.047-1.2,3.514-3.766,1.776-3.315-2.244-4.774-.1-2.973,4.37a7.063,7.063,0,0,1-.333,6.646c-1.047,1.51-2.2,2.709-2.555,2.666s-3.607-2.819-7.219-6.167c-6.479-6.006-6.544-6.133-4.794-9.419,1.423-2.673,2.645-3.42,6.185-3.782s5-1.253,7.367-4.5c2.326-3.188,3.426-3.884,5.165-3.269,1.643.581,3.017-.194,5.358-3.024l3.148-3.805,5.228,7.311c4.857,6.793,5.568,7.347,10.021,7.805,3.685.38,5.732-.329,8.855-3.064,2.234-1.956,3.948-4.242,3.81-5.078s1.773-1.237,4.285-.883c3.829.538,4.71.183,5.64-2.28a28.51,28.51,0,0,0,1-8.357c-.12-6.57,1.154-6.83,4.046-.827,1.9,3.952,2.533,9,2.536,20.393,0,1.764.834,3.645,1.851,4.18,1.907,1,7.163,20.8,7.083,26.671-.043,3.186-.149,3.222-2.939,1.006-3.283-2.609-8.985-2.308-7.929.419a2.638,2.638,0,0,1-.623,2.74c-2.509,2.2-1.266,7.575,3.717,16.081,2.8,4.776,6.023,9.839,7.166,11.25,4.313,5.323,12.825,21.033,13.316,24.576.719,5.184-3.309,8.443-7.153,5.786a18.851,18.851,0,0,1-4.814-5.439c-2.336-4.252-4.174-2.992-3.432,2.354.3,2.152,0,4.39-.667,4.972-1.433,1.255-.282,5.151,12.739,43.126,9.444,27.546,9.734,28.8,6.084,26.268-3.845-2.663-8.228-3.192-10.433-1.261-1.154,1.011,1.724,11.692,4.4,16.332.74,1.283-1.465-.736-4.9-4.486Zm-.348-19.985c-.507-.579-1.128-.383-1.38.435a2.749,2.749,0,0,0-.075,1.925c.211.241.832.045,1.38-.435A1.367,1.367,0,0,0,364.8,510.047ZM359.721,494.2c-.718-.82-1.512-.821-1.764,0a3.586,3.586,0,0,0,.846,2.977c.718.82,1.511.821,1.764,0A3.585,3.585,0,0,0,359.721,494.2Zm-2.7-75.345c-.512-2.223-1.107-2.524-3.055-1.549a3.4,3.4,0,0,1-3.869-.445c-.922-1.053-1.97-.968-2.877.233-.959,1.27-.661,2.587.91,4.018,4.7,4.278,10.083,2.911,8.891-2.257Zm-15.687-8.287c-1.379-4.611-4.622-6.1-7.074-3.256-1.582,1.837-1.389,3.069.985,6.282,2.545,3.444,3.239,3.746,5.028,2.18A5.093,5.093,0,0,0,341.331,410.569Zm1.027-17.993c.228-2.3.13-4.5-.218-4.9-.851-.972-11.031,1.016-12.7,2.482-1.961,1.717-.334,4.922,3.538,6.974,5.89,3.121,8.761,1.727,9.384-4.554Zm-.737-33.2c1.306-2.068,2.039-4.143,1.628-4.613-1.325-1.513-6.147-2.915-7.114-2.068-1.3,1.137,1.9,12.237,4.21,14.635,1.595,1.652,1.657,1.476.4-1.117C339.739,364.149,340.029,361.894,341.62,359.375Zm-21.579-.926a1.819,1.819,0,0,0-2.567.054c-1.5,1.317.6,4.881,2.968,5.034,1.457.094,1.2-3.218-.4-5.088Zm50.851,55.963a13.4,13.4,0,0,1-2.949-5.317c-.26-1.792.268-1.642,2.271.644a13.394,13.394,0,0,1,2.949,5.316C373.422,416.849,372.894,416.7,370.891,414.412Zm-46.109-71.968a3.2,3.2,0,0,0-3.337.29c-.8.7-2.527.633-3.831-.155s-2.854-1.012-3.441-.5c-.7.615-2.545-1.149-5.373-5.144-2.367-3.344-5.334-6.472-6.594-6.952a33.208,33.208,0,0,1-4.487-2.21c-1.755-1.068-2.863-.6-5.5,2.311-2.7,2.983-4.123,3.543-7.8,3.071a13.153,13.153,0,0,1-7.183-3.579c-3.523-3.941-6.389-3.984-10.674-.163s-5.277,7.9-3.024,12.519c1.355,2.782-.306,1.719-8.095-5.179-5.39-4.774-9.773-9.087-9.739-9.585s1.486-1.14,3.229-1.425c2.666-.437,3.651-1.492,6.219-6.665,3.692-7.436,7.21-9.959,11.314-8.112,3.173,1.428,8.98-.934,10.809-4.4.7-1.315,1.452-1.291,2.459.089.8,1.1,4.323,5.128,7.829,8.962l6.379,6.966,3.675-3.343c2.021-1.838,4.039-4.712,4.483-6.386a13.161,13.161,0,0,1,3.541-5.435c1.589-1.392,2.479-3.456,2.126-4.933-.909-3.806-6.071-11.515-8.078-12.063-2.5-.684-12.27,5.791-11.92,7.9a4.479,4.479,0,0,1-1.655,3.373c-1.678,1.469-2.562.977-6.668-3.712-2.6-2.973-5.424-5.289-6.268-5.147s-2.663-1.031-4.043-2.607c-2.812-3.212-8.279-3.278-11.858-.144-1.216,1.065-2.879,1.732-3.7,1.482s-2.366.317-3.441,1.258c-1.124.984-3.377,1.073-5.3.209-4.335-1.951-8.971.383-9.49,4.778-.464,3.933-5.7,8.022-8.594,6.712a20.8,20.8,0,0,1-4.88-4.064c-2.249-2.46-2.485-3.529-1.05-4.785,1.016-.89,2.078-3.795,2.36-6.455s1.4-5.615,2.486-6.565a3.75,3.75,0,0,0,1.26-3.67c-1.09-2.968,1.657-6.506,4.887-6.3a4.278,4.278,0,0,0,3.823-1.66c.536-1.015,1.45-1.3,2.032-.637.68.776,1.72.252,2.914-1.469,2.341-3.376,4.5-2.058,13.6,8.292,7.419,8.441,10.61,9.627,11.96,4.446,1.449-5.56,4.311-8.389,8.967-8.865,2.434-.249,4.916-.883,5.517-1.409,1.4-1.227,1.472-1.122,2.871,4.238,1.207,4.623,4.343,8.061,5.8,6.36a44.022,44.022,0,0,0,2.577-3.776c1.481-2.378,1.893-2.452,2.62-.471.615,1.676,2.682,2.388,7.2,2.482,6.943.145,7,.055,3.683-5.913-2.89-5.2-3.731-10.994-1.76-12.115.834-.474,1.181-3.646.771-7.048-.635-5.275-1.834-7.558-8.143-15.514A77.865,77.865,0,0,1,284.313,219.2a64.5,64.5,0,0,0-11.778-19.7c-11.018-13.088-11.628-14.392-8.15-17.437,1.623-1.421,3.739-2.156,4.721-1.64,1.473.775,2.051.117,3.355-3.822l1.576-4.758,3.516,1.582c2.451,1.1,3.476,2.174,3.383,3.538-.163,2.408,2.663,5.826,3.913,4.732a2.36,2.36,0,0,0,.271-2.431c-.353-.9.041-1.61.877-1.583s2.471,2.544,3.633,5.595a30.468,30.468,0,0,0,7.443,10.695c4.952,4.782,5.581,6.163,8.855,19.453,3.04,12.335,4.307,26.785,2.489,28.377-.31.272-1.443-1.106-2.517-3.061-2.111-3.842-4.968-3.331-3.149.563a73.348,73.348,0,0,1,2.7,9.049c.924,3.778,2.477,7.78,3.453,8.894s2.411,4.558,3.188,7.652a99.064,99.064,0,0,0,8.005,20.127c1.039,1.938,2.665,7.6,3.612,12.586s2.864,10.85,4.26,13.033a16.984,16.984,0,0,1,2.544,7.475,91.569,91.569,0,0,0,1.1,10.451c.6,3.82,1.123,7.226,1.164,7.569s-1.187.659-2.73.7c-2.39.067-2.77.492-2.563,2.872.3,3.432-.273,4.011-2.7,2.735Zm14.7-24.964c-2.128-1.119-2.918-3.783-1.493-5.032,1.257-1.1,4.437,2.641,3.853,4.533-.254.823-1.316,1.048-2.36.5ZM207.8,368.486c-4.929-.7-20.135-8.55-23.184-11.961-2.5-2.8-2.479-2.86,1.011-2.808a9.333,9.333,0,0,1,5.991,2.821c1.333,1.522,3.114,2.651,3.958,2.509s2.442.778,3.552,2.045a6.722,6.722,0,0,0,5.159,1.961c3.6-.393,9.86,3.428,8.115,4.956-.613.537-2.684.751-4.6.477Zm114.867-100.55c-1.4-.847-2.523-1.961-2.488-2.474s1.211-.24,2.615.608,2.523,1.961,2.488,2.474-1.211.239-2.615-.608ZM144.845,323.17c-4.1-3.407-8.111-6.585-8.908-7.063-2.5-1.494-.848-3.332,2.629-2.932,2.481.285,3.948,1.439,5.783,4.548,2.193,3.715,2.687,3.967,4.563,2.324,1.157-1.013,2.319-1.6,2.582-1.3,1.144,1.307,2.49,9.142,1.691,9.842-.484.424-4.237-2.016-8.339-5.423Zm60.252-43.01c-.657-.043-3.479-2.685-6.27-5.873-3.931-4.489-4.738-6.09-3.58-7.1a2.42,2.42,0,0,0,.124-3.18c-.754-1.029-1.783-2.442-2.287-3.14-2.235-3.094-.405-3.511,3.152-.719a19.636,19.636,0,0,0,8.525,3.537c4.6.474,4.626.5,4.489,4.256-.185,5.035-2.659,12.319-4.153,12.222Zm26.695-27.493c-2.77-.847-16,3.5-17.327,5.695-1.057,1.743-1.792,1.579-3.941-.875a24.1,24.1,0,0,0-7.878-5.067c-5.4-2.115-18.3-11.828-21.855-16.461-1.108-1.443-4.98-6.346-8.6-10.9-11.986-15.052-15.874-22.954-9.354-19.016,2.983,1.8,4.348.678,3.523-2.9-.492-2.132-1.668-2.956-5.142-3.6-4.452-.827-4.518-.9-5.658-5.9a20.065,20.065,0,0,0-4.418-8.32c-2.451-2.444-3.344-4.911-3.583-9.892-.3-6.3,1.421-10.342,3.432-8.046,1.419,1.62,4.1-3.617,3.995-7.793-.086-3.283-.35-3.622-2.694-3.46-3.8.263-10.18-2.508-10.054-4.37.06-.891,2.1-1.709,4.6-1.845l4.49-.244-2.26-2.581c-1.821-2.079-1.775-3.212.237-5.833,1.373-1.789,2.213-4.48,1.868-5.98s-.2-3.107.332-3.57c1.584-1.388,3.548,1.862,2.649,4.383-.471,1.32-.07,2.577.918,2.879,1.206.368,1.859-.113,2.09-1.542.185-1.143,2.223-3.258,4.53-4.7,3.823-2.391,4.442-2.34,6.991.57,3.224,3.682,9.23,4.372,10.88,1.25,1.464-2.77,13.514-2.03,14.589.9,1.293,3.522-2.657,5.808-5.139,2.974-2.161-2.468-6.395-2.361-9.361.237a2.007,2.007,0,0,0-.3,2.81c.7.794.314,3.632-.847,6.306-3.079,7.09-1.627,12.966,5.1,20.662,6.8,7.761,13.727,19.681,12.221,21-2.605,2.282-1.418,5.064,3.106,7.275,4.3,2.1,4.461,2.381,3.992,6.8-.419,3.947-.984,4.757-3.944,5.65a6.939,6.939,0,0,0-4.833,4.085c-1.031,2.277-2.156,3.113-4.472,3.32-4.226.378-5.014,1.336-3,3.641a5.109,5.109,0,0,0,4.571,1.285c1.586-.37,4.489.61,6.512,2.2,2.117,1.662,4.582,2.458,5.869,1.894,3.163-1.385,9.055,1.367,13.583,6.345,2.879,3.166,4.862,4.237,7.637,4.126,4.216-.169,6.606,2.049,9.826,9.12,2.177,4.781.71,8.59-2.885,7.492ZM181.91,213.119c-2.678-3.953-10.347-5.5-13.511-2.734-3.227,2.826-2.862,5.51.52,3.817,2.849-1.427,4.46-.081,7.4,6.182,1.088,2.316,2.581,4.4,3.317,4.62,2.432.744,4.279-8.921,2.271-11.886Zm3.377-26.3a58.791,58.791,0,0,0-3.711-7.721,17.436,17.436,0,0,1-2.36-7.012c.017-3.819-5.238-11.81-7.513-11.427-1,.168-1.207,1.653-.5,3.553a10.055,10.055,0,0,1,.723,4.842c-.268.868.445,2.643,1.585,3.945,3.275,3.74,1.725,5.1-4.4,3.871-5.418-1.09-5.68-1.3-6.2-5.082-.3-2.169.352-4.848,1.452-5.954l3.4-3.42c1.749-1.755,1.079-3.11-3.2-6.47-4.558-3.578-7.993-2.292-4.509,1.688,2.115,2.415,2.168,3.313.291,4.956a7.548,7.548,0,0,0-2.444,4.246c-.118,1.742-.649,2.207-2.391,2.094-4.588-.3-4.7,2.317-.706,16.5.164.581,1.68-.155,3.37-1.635,3.515-3.078,4.277-2.517,7.525,5.54,2.86,7.094,5.545,7.294,7.033.523.719-3.274,1.577-4.534,3.021-4.44s1.875.589,1.513,1.75c-.547,1.772,2.719,6.087,4.7,6.215,2.874.186,4.565-3.158,3.319-6.563Zm-.252,66.607a1.518,1.518,0,0,1-.917-1.934c.256-.831,1.077-.814,1.823.038,1.528,1.745,1.155,2.526-.906,1.9Zm-9.194-3.376a3.575,3.575,0,0,1-.764-3.02,2.308,2.308,0,0,0-1.262-2.509c-.972-.511-1.149-1.45-.4-2.109,1.992-1.744,5.14.386,5.7,3.856.566,3.518-1.461,5.858-3.278,3.783Zm90.595-80.611a32.178,32.178,0,0,1-4.083-3.153c-2.2-1.977-3.027-1.8-7.485,1.63-3.877,2.981-5.815,3.631-8.558,2.871-3.2-.887-3.684-1.471-4.964-6.044-1.179-4.208-.941-5.307,1.408-6.512,2.444-1.254,2.5-1.819.44-4.175a93.462,93.462,0,0,0-9.093-8.025c-5.391-4.26-7.07-4.982-8.559-3.679a3.627,3.627,0,0,0-1.12,3.614c1.119,3.048-.8,3.833-3.062,1.251-1.445-1.65-1.439-3.631.022-7.012,1.12-2.592,1.394-5.445.61-6.34-1.226-1.4-1.031-1.636,1.391-1.686,1.549-.032,5.061-1.2,7.8-2.6,4.121-2.1,5.632-2.125,8.7-.155,2.753,1.77,4.283,1.881,5.939.431,2.5-2.187,6.834-.113,7.626,3.647.264,1.25,2.8,4.424,5.627,7.053,4.339,4.029,4.891,5.006,3.514,6.212-.9.787-1.347,1.772-1,2.188a26.6,26.6,0,0,1,2,3.518c1.1,2.248,1.762,2.406,3.539.85,1.536-1.345,2.531-1.313,3.361.108,1.62,2.775-1.078,5.9-3.513,4.074-1.255-.943-1.094.555.453,4.2,2.431,5.737,1.956,9.429-.993,7.724ZM245.85,140.8c-5.653-7.265-12.467-11.707-13.387-8.726-.47,1.524,6.935,8.907,11.166,11.132,2.555,1.344,3.957-.175,2.221-2.406ZM98.157,300.563a31.4,31.4,0,0,1-6.152-1.5c-1.029-1.175,8.506-5.007,11.123-4.47,7.846,1.61,3,7.42-4.972,5.966Zm70.461-60.781c-.835-.954-.5-5.015.486-5.879,1.7-1.492,3.12,2.175,1.666,4.315-.846,1.246-1.814,1.949-2.152,1.563ZM161.819,228c.842-2.937,1.9-3.863,2.989-2.618.479.546-.145,1.87-1.385,2.942-1.824,1.575-2.131,1.513-1.6-.324Zm48.873-96.841a76.852,76.852,0,0,0-11.961-.53,20.167,20.167,0,0,1-7.918-1.4,46.173,46.173,0,0,0-11.835-2.157c-4.814-.239-8.035-1.239-9.543-2.961-2.688-3.07-2.594-3.182,5.129-6.139,9.974-3.818,14.643-3.867,16.671-.177,1.545,2.812,2.285,2.964,6.463,1.328,6.112-2.393,16.349-2.375,18.458.034,2.28,2.6,1.027,3.269-4.353,2.313-2.52-.448-4.628-.178-4.684.6s1.776,1.593,4.071,1.814c4.3.413,7.284,2.8,7.812,6.238.216,1.409-2.133,1.7-8.31,1.035Zm-13.734-27.2c-4.162.818-10.893-2.914-12.887-7.145a11.994,11.994,0,0,0-4.2-4.866c-5.049-2.608-6.259-5.431-5.876-13.711.214-4.629-.115-9.575-.733-10.992-.642-1.473-.355-2.86.67-3.238,2.481-.916,1.762-4.12-1.85-8.244-2.5-2.85-2.69-3.889-1.081-5.758,1.26-1.464,2.415-1.766,3.223-.843a5.555,5.555,0,0,0,3.837,1.365c4.214-.118,5.959,3.31,6.109,12,.078,4.512.527,8.644,1,9.183a5.489,5.489,0,0,1,.7,3.312c-.094,1.381,2.346,5.3,5.977,9.6,13.057,15.465,12.627,14.75,10.151,16.86a13.165,13.165,0,0,1-5.038,2.477Zm-37.02,20.365c-5.044.689-4.54-.627,1.036-2.706,1.872-.7,3.806-.811,4.3-.251,1.306,1.491-.035,2.235-5.332,2.958Zm-32.354.249c-.479-.546-.224-1.559.566-2.251a3.508,3.508,0,0,1,2.922-.8c.817.25.563,1.263-.566,2.251S128.062,125.118,127.583,124.572Zm-6.929-9.291a61.223,61.223,0,0,1-4.69-4.231,95.6,95.6,0,0,0-9.043-7c-3.97-2.8-8.651-6.2-10.4-7.565A16.547,16.547,0,0,0,91.68,93.7c-3.039-.568-9.356-6.266-8.831-7.966.319-1.033,1.455-.529,3.135,1.389,2.888,3.3,17.54,9.653,23.082,10.012a10.7,10.7,0,0,0,6.914-2.773c3.133-2.744,3.691-2.748,6.558-.051,2.308,2.171,4.157,2.659,7.015,1.852,2.135-.6,4.192-.742,4.571-.309,1.12,1.279-5.6,17.363-8.208,19.648-1.837,1.608-3.067,1.557-5.262-.22Zm7.577-85.188c-1.033-.543-3.076.061-4.54,1.342a12.933,12.933,0,0,1-6.022,2.7,51.285,51.285,0,0,0-10.212,3.238c-4.67,1.955-8.1,2.444-10.768,1.536-3.963-1.348-10.528-1.337-14.174.022-1.442.537-1.459.24-.063-1.078,1.06-1,5.8-2.825,10.535-4.053s10.747-3.626,13.361-5.328,5.8-2.929,7.071-2.727a5.561,5.561,0,0,0,3.995-1.1C119.5,22.82,128.057,22.02,133.9,23.1l4.391.815L134.2,27.5c-2.716,2.378-4.72,3.249-5.968,2.593ZM80.779,63.949c-2.182-.667-.713-5.212,2.079-6.435C85.97,56.151,87.3,57.255,85.853,60c-1.492,2.823-3.543,4.421-5.074,3.953Zm-40.46,23.79c-5.516.686-11.75-.494-11.634-2.2.045-.67,8.718-3.618,14.476-4.92a14.182,14.182,0,0,1,5.441.439c3.2.865,3.224,1.03.482,3.43-1.584,1.387-5.528,2.851-8.765,3.254Z" transform="translate(-10.291 -12.513)"/></svg>